<svg width="64" height="64" viewBox="0 0 64 64" fill="none" xmlns="http://www.w3.org/2000/svg">
  <g clip-path="url(#clip0_3158_25470)">
    <circle cx="32" cy="32" r="32" fill="#F4F499" />
    <mask id="mask0_3158_25470" style="mask-type:alpha" maskUnits="userSpaceOnUse" x="0" y="0" width="65" height="64">
      <path
        d="M32.1367 63.8255C49.7415 63.8255 64.013 49.554 64.013 31.9492C64.013 14.3444 49.7415 0.072937 32.1367 0.072937C14.5319 0.072937 0.260437 14.3444 0.260437 31.9492C0.260437 49.554 14.5319 63.8255 32.1367 63.8255Z"
        fill="#C4C4C4" />
    </mask>
    <g mask="url(#mask0_3158_25470)">
      <path d="M75.4476 25.9879V66.1629H39.7697V25.9879H75.4476ZM76.3009 25.1346H38.9164V67.0162H76.3009V25.1346Z"
        fill="black" />
      <path
        d="M78.3785 28.9745V69.1452H42.7006V28.9745H78.3785ZM79.2318 28.1212H42.6281C42.5258 28.1206 42.4243 28.1403 42.3296 28.179C42.2349 28.2178 42.1488 28.2749 42.0762 28.3471C42.0037 28.4193 41.9461 28.5051 41.9068 28.5995C41.8675 28.694 41.8473 28.7954 41.8473 28.8977V69.9985H79.2318V28.1212Z"
        fill="black" />
      <path
        d="M81.327 31.9575V72.1324H45.6364V32.0258C45.6364 32.0099 45.6426 31.9948 45.6538 31.9835C45.6651 31.9723 45.6802 31.9661 45.6961 31.9661H81.327V31.9575ZM82.1803 31.1127H45.6961C45.4539 31.1127 45.2217 31.2089 45.0505 31.3802C44.8792 31.5514 44.783 31.7836 44.783 32.0258V72.9858H82.1803V31.1042V31.1127Z"
        fill="black" />
      <path
        d="M84.2499 34.9394V75.1143H48.5721V35.6391C48.5732 35.4539 48.6473 35.2766 48.7783 35.1456C48.9092 35.0146 49.0866 34.9405 49.2718 34.9394H84.2584H84.2499ZM85.1118 34.0861H49.2718C48.8599 34.0861 48.4649 34.2497 48.1736 34.5409C47.8824 34.8322 47.7188 35.2272 47.7188 35.6391V75.9677H85.1032V34.0861H85.1118Z"
        fill="black" />
      <path
        d="M87.1847 37.926V78.0967H51.5068V38.7879C51.5068 38.5616 51.5967 38.3445 51.7567 38.1845C51.9167 38.0245 52.1338 37.9346 52.3601 37.9346H87.1761L87.1847 37.926ZM88.0295 37.0812H52.3601C51.9075 37.0812 51.4734 37.261 51.1533 37.5811C50.8333 37.9012 50.6534 38.3353 50.6534 38.7879V78.95H88.038V37.0727L88.0295 37.0812Z"
        fill="black" />
      <path
        d="M90.1209 40.9091V81.084H54.4473V42.0824C54.4473 41.7712 54.5709 41.4728 54.7909 41.2527C55.011 41.0327 55.3094 40.9091 55.6206 40.9091H90.1251H90.1209ZM90.9785 40.0557H55.6163C55.0796 40.0569 54.5652 40.2709 54.186 40.6508C53.8069 41.0308 53.5939 41.5456 53.5939 42.0824V81.9373H90.9785V40.0557Z"
        fill="black" />
      <path
        d="M93.0513 43.8909V84.0658H57.3734V45.2733C57.3745 44.907 57.5205 44.5561 57.7796 44.2971C58.0386 44.0381 58.3895 43.8921 58.7558 43.8909H93.0513ZM93.9046 43.0376H58.7558C58.1632 43.0387 57.5952 43.2746 57.1762 43.6937C56.7571 44.1127 56.5212 44.6807 56.5201 45.2733V84.9192H93.9046V43.0376Z"
        fill="black" />
      <path
        d="M95.9876 46.8776V87.0482H60.3098V48.2856C60.3087 47.9147 60.4543 47.5585 60.7149 47.2947C60.9755 47.0309 61.3299 46.8809 61.7007 46.8776H95.9748H95.9876ZM96.8282 46.0242H61.7007C61.1021 46.0242 60.528 46.262 60.1047 46.6853C59.6815 47.1086 59.4437 47.6827 59.4437 48.2813V87.9016H96.8282V46.0242Z"
        fill="black" />
      <path d="M78.8049 4.25818V21.5595H51.9249V4.25818H78.8049ZM79.6583 3.40485H51.0716V22.4128H79.6583V3.40485Z"
        fill="black" />
      <path
        d="M81.7539 1.39142V18.6928H54.8739V1.39142H81.7539ZM82.6072 0.538086H54.0206V18.7696C54.02 18.8717 54.0397 18.9729 54.0785 19.0674C54.1174 19.1619 54.1745 19.2477 54.2468 19.3199C54.319 19.3921 54.4048 19.4493 54.4993 19.4881C54.5937 19.527 54.695 19.5467 54.7971 19.5461H82.6072V0.538086Z"
        fill="black" />
      <path
        d="M84.2491 -1.04968V16.2516H57.4331C57.4173 16.2516 57.4021 16.2454 57.3909 16.2342C57.3797 16.223 57.3734 16.2078 57.3734 16.1919V-1.04968H84.2534H84.2491ZM85.1067 -1.90302H56.5201V16.1919C56.5201 16.4341 56.6163 16.6663 56.7875 16.8376C56.9587 17.0088 57.191 17.105 57.4331 17.105H85.1025V-1.90302H85.1067Z"
        fill="black" />
      <path d="M87.6122 -4.34308V12.9583H60.7321V-4.34308H87.6122ZM88.4655 -5.19641H59.8788V13.8116H88.4655V-5.19641Z"
        fill="black" />
      <path d="M24.6488 25.9879V66.1629H-11.0291V25.9879H24.6488ZM25.5021 25.1346H-11.8824V67.0162H25.5021V25.1346Z"
        fill="black" />
      <path
        d="M21.7131 28.9745V69.1452H-13.9648V28.9745H21.7131ZM21.7899 28.1212H-14.8181V69.9986H22.5664V28.8977C22.5664 28.6918 22.4846 28.4943 22.339 28.3487C22.1933 28.203 21.9958 28.1212 21.7899 28.1212Z"
        fill="black" />
      <path
        d="M18.7176 31.9575C18.7334 31.9575 18.7486 31.9638 18.7598 31.975C18.771 31.9862 18.7773 32.0014 18.7773 32.0173V72.1239H-16.9006V31.9575H18.7176ZM18.7176 31.1042H-17.7539V72.9858H19.6306V32.0258C19.6306 31.7836 19.5344 31.5514 19.3632 31.3802C19.192 31.2089 18.9597 31.1127 18.7176 31.1127V31.1042Z"
        fill="black" />
      <path
        d="M15.143 34.9394C15.3286 34.9394 15.5065 35.0131 15.6378 35.1443C15.769 35.2756 15.8427 35.4535 15.8427 35.6391V75.1143H-19.8351V34.9394H15.1515H15.143ZM15.1515 34.0861H-20.6885V75.9677H16.6961V35.6391C16.6961 35.2272 16.5324 34.8322 16.2412 34.5409C15.9499 34.2497 15.5549 34.0861 15.143 34.0861H15.1515Z"
        fill="black" />
      <path
        d="M12.0451 37.926C12.2714 37.926 12.4885 38.0159 12.6485 38.176C12.8085 38.336 12.8984 38.553 12.8984 38.7794V78.0881H-22.7794V37.926H12.0366H12.0451ZM12.0366 37.0727H-23.6328V78.95H13.7603V38.7879C13.7603 38.3353 13.5805 37.9012 13.2604 37.5811C12.9404 37.261 12.5063 37.0812 12.0536 37.0812L12.0366 37.0727Z"
        fill="black" />
      <path
        d="M8.79416 40.909C9.10574 40.909 9.40462 41.0325 9.62534 41.2524C9.84606 41.4723 9.97063 41.7708 9.97176 42.0823V81.0839H-25.7018V40.909H8.79416ZM8.79416 40.0557H-26.5552V81.9373H10.8294V42.0823C10.8288 41.8156 10.7757 41.5516 10.6731 41.3055C10.5706 41.0593 10.4205 40.8357 10.2315 40.6475C10.0425 40.4593 9.81831 40.3102 9.57169 40.2086C9.32507 40.1071 9.06086 40.0551 8.79416 40.0557Z"
        fill="black" />
      <path
        d="M5.65789 43.8909C6.02419 43.8921 6.37515 44.0381 6.63416 44.2971C6.89316 44.5561 7.03917 44.907 7.04029 45.2733V84.0658H-28.6376V43.8909H5.65789ZM5.65789 43.0376H-29.4909V84.9192H7.89363V45.2733C7.8925 44.6807 7.65659 44.1127 7.23755 43.6937C6.81851 43.2746 6.2505 43.0387 5.65789 43.0376Z"
        fill="black" />
      <path
        d="M2.70083 46.8776C2.88517 46.8781 3.0676 46.915 3.23769 46.9861C3.40779 47.0571 3.56222 47.161 3.69217 47.2917C3.82213 47.4225 3.92505 47.5775 3.99508 47.7481C4.06511 47.9186 4.10086 48.1012 4.1003 48.2856V87.0525H-31.5733V46.8776H2.70083ZM2.70083 46.0242H-32.4266V87.9016H4.95363V48.2856C4.95363 47.687 4.71583 47.1129 4.29255 46.6896C3.86927 46.2663 3.29518 46.0285 2.69656 46.0285L2.70083 46.0242Z"
        fill="black" />
      <path d="M12.48 4.25818V21.5595H-14.4V4.25818H12.48ZM13.3334 3.40485H-15.2533V22.4128H13.3334V3.40485Z"
        fill="black" />
      <path
        d="M9.54907 1.39142V18.6928H-17.3309V1.39142H9.54907ZM10.4024 0.538086H-18.1843V19.5461H9.6472C9.85315 19.5461 10.0507 19.4643 10.1963 19.3186C10.3419 19.173 10.4237 18.9755 10.4237 18.7696V0.538086H10.4024Z"
        fill="black" />
      <path
        d="M7.04059 -1.04968V16.1919C7.04059 16.2078 7.03429 16.223 7.02309 16.2342C7.01189 16.2454 6.9967 16.2516 6.98085 16.2516H-19.8351V-1.04968H7.04486H7.04059ZM7.89819 -1.90302H-20.6885V17.105H6.98085C7.10076 17.105 7.21949 17.0814 7.33027 17.0355C7.44105 16.9896 7.5417 16.9223 7.62649 16.8376C7.71128 16.7528 7.77853 16.6521 7.82442 16.5413C7.87031 16.4306 7.89392 16.3118 7.89392 16.1919V-1.90302H7.89819Z"
        fill="black" />
      <path d="M3.67395 -4.34308V12.9583H-23.2061V-4.34308H3.67395ZM4.52728 -5.19641H-24.0594V13.8116H4.52728V-5.19641Z"
        fill="black" />
      <path d="M36.1475 53.7515V73.5275H28.4206V53.7515H36.1475ZM37.0009 52.8981H27.5673V74.3808H37.0009V52.8981Z"
        fill="black" />
      <path
        d="M33.6046 56.4775V69.9474H30.9806V56.4775H33.6089H33.6046ZM33.6857 55.6242H30.9038C30.6993 55.6242 30.5031 55.7048 30.3577 55.8486C30.2123 55.9924 30.1295 56.1877 30.1273 56.3922V70.7922H34.4579V56.3922C34.4585 56.2901 34.4388 56.1888 34.4 56.0944C34.3611 55.9999 34.304 55.9141 34.2317 55.8419C34.1595 55.7696 34.0737 55.7125 33.9792 55.6736C33.8848 55.6348 33.7835 55.6151 33.6814 55.6157L33.6857 55.6242Z"
        fill="black" />
      <path d="M48.3281 -3.40485V10.4192H16.0849V-3.40485H48.3281ZM49.1814 -4.25818H15.2316V11.2725H49.1814V-4.25818Z"
        fill="black" />
      <path
        d="M45.8791 -1.29333V8.31093H18.5383V-1.29333H45.8791ZM46.7324 -2.14667H17.6849V8.38773C17.6849 8.59368 17.7667 8.79119 17.9124 8.93682C18.058 9.08245 18.2555 9.16426 18.4615 9.16426H45.9559C46.1615 9.16314 46.3583 9.08097 46.5037 8.93558C46.6491 8.7902 46.7313 8.59333 46.7324 8.38773V-2.14667Z"
        fill="black" />
      <path
        d="M43.302 -5.74304V6.11403C43.302 6.12874 43.2961 6.14284 43.2857 6.15325C43.2753 6.16365 43.2612 6.16949 43.2465 6.16949H21.1665C21.1588 6.17008 21.1512 6.16908 21.1439 6.16656C21.1367 6.16404 21.1301 6.16005 21.1245 6.15483C21.1189 6.14962 21.1144 6.14331 21.1113 6.13628C21.1083 6.12926 21.1067 6.12168 21.1068 6.11403V-5.74304H43.2934H43.302ZM44.1468 -6.59637H20.2534V6.11403C20.2534 6.23373 20.2771 6.35226 20.323 6.4628C20.3689 6.57334 20.4363 6.67371 20.5211 6.75816C20.6059 6.8426 20.7066 6.90946 20.8174 6.95487C20.9281 7.00029 21.0468 7.02339 21.1665 7.02283H43.2422C43.4832 7.02283 43.7144 6.92708 43.8848 6.75664C44.0553 6.58621 44.151 6.35505 44.151 6.11403V-6.59637H44.1468Z"
        fill="black" />
      <path
        d="M40.7258 -8.10669V3.11038C40.7247 3.29561 40.6506 3.47294 40.5196 3.60393C40.3887 3.73491 40.2113 3.80899 40.0261 3.81011H24.393C24.3011 3.81011 24.2102 3.79201 24.1253 3.75685C24.0404 3.72168 23.9632 3.67014 23.8982 3.60516C23.8333 3.54019 23.7817 3.46305 23.7466 3.37815C23.7114 3.29326 23.6933 3.20227 23.6933 3.11038V-8.10669H40.7258ZM41.5792 -8.96002H22.84V3.11038C22.84 3.52228 23.0036 3.9173 23.2948 4.20856C23.5861 4.49982 23.9811 4.66344 24.393 4.66344H40.0261C40.438 4.66344 40.833 4.49982 41.1243 4.20856C41.4155 3.9173 41.5792 3.52228 41.5792 3.11038V-8.96002Z"
        fill="black" />
      <path
        d="M38.3958 -8.10669V0.699712C38.3958 0.811772 38.3737 0.922737 38.3308 1.02627C38.2879 1.1298 38.2251 1.22387 38.1458 1.30311C38.0666 1.38235 37.9725 1.4452 37.869 1.48809C37.7654 1.53097 37.6545 1.55304 37.5424 1.55304H26.8886C26.6622 1.55304 26.4452 1.46314 26.2852 1.30311C26.1251 1.14308 26.0352 0.926029 26.0352 0.699712V-8.10669H38.4086H38.3958ZM39.2619 -8.96002H25.1819V0.699712C25.1819 1.15235 25.3617 1.58645 25.6818 1.90651C26.0018 2.22657 26.4359 2.40638 26.8886 2.40638H37.5296C37.9823 2.40638 38.4164 2.22657 38.7364 1.90651C39.0565 1.58645 39.2363 1.15235 39.2363 0.699712V-8.96002H39.2619Z"
        fill="black" />
      <path
        d="M37.0001 25.135V50.671H27.5665V25.135H37.0001ZM15.2401 12.9963H37.0428V22.4129H15.2316L15.2401 12.9963ZM39.7734 22.4129H49.19V12.9963H39.7649L39.7734 22.4129Z"
        fill="black" />
    </g>
  </g>
  <path
    d="M63.9 32C63.9 49.6179 49.6179 63.9 32 63.9C14.3821 63.9 0.1 49.6179 0.1 32C0.1 14.3821 14.3821 0.1 32 0.1C49.6179 0.1 63.9 14.3821 63.9 32Z"
    stroke="black" stroke-width="0.2" stroke-miterlimit="10" />
  <defs>
    <clipPath id="clip0_3158_25470">
      <rect width="64" height="64" fill="white" />
    </clipPath>
  </defs>
</svg>