<svg width="64" height="64" viewBox="0 0 64 64" fill="none" xmlns="http://www.w3.org/2000/svg">
<circle cx="32" cy="32" r="32" fill="#0E0037"/>
<path d="M32.0276 52.5253C28.5661 52.5253 25.3097 51.1749 22.8653 48.7305L12.7884 38.6622C7.73719 33.6109 7.73719 25.3888 12.7884 20.3375L17.8226 15.3034C20.2756 12.8504 23.5319 11.5 26.9935 11.5H37.0618C40.5233 11.5 43.7797 12.8504 46.2241 15.2948L51.2582 20.329C56.3095 25.3802 56.3095 33.6024 51.2582 38.6536L41.1899 48.7305C38.7455 51.1749 35.4891 52.5253 32.0276 52.5253ZM26.9935 15.5683C24.6174 15.5683 22.3867 16.4914 20.7115 18.1752L15.6688 23.2093C12.2072 26.6708 12.2072 32.3118 15.6688 35.7819L25.7371 45.8502C27.4123 47.5254 29.6516 48.457 32.0191 48.457C34.3951 48.457 36.6259 47.5339 38.3011 45.8502L48.3694 35.7819C51.8309 32.3204 51.8309 26.6794 48.3694 23.2093L43.3352 18.1752C41.66 16.5 39.4207 15.5683 37.0532 15.5683H26.9935Z" fill="white"/>
<path d="M32.028 46.4739C29.9938 46.4739 28.0707 45.679 26.6348 44.2346L17.5238 35.1321C14.5494 32.1578 14.5494 27.3202 17.5238 24.3373L22.0793 19.7903C23.5237 18.3459 25.4383 17.5596 27.4724 17.5596H36.5749C38.6091 17.5596 40.5322 18.3544 41.968 19.7989L46.5236 24.3544C49.4979 27.3287 49.4979 32.1663 46.5236 35.1492L37.4211 44.2346C35.9852 45.679 34.0621 46.4739 32.028 46.4739ZM27.4724 21.6279C26.5237 21.6279 25.6263 21.9954 24.9596 22.6706L20.4041 27.2262C19.0195 28.6108 19.0195 30.8672 20.4041 32.2603L29.5066 41.3628C30.8485 42.7047 33.1989 42.7047 34.5408 41.3628L43.6432 32.2603C45.0279 30.8757 45.0279 28.6193 43.6432 27.2262L39.0877 22.6706C38.4125 21.9954 37.5236 21.6279 36.5749 21.6279H27.4724Z" fill="white"/>
<path d="M32.0275 40.5082L21.5831 30.0638L28.1386 23.5168H35.9164L42.4719 30.0638L32.0275 40.5082Z" fill="white"/>
</svg>
