<svg xmlns="http://www.w3.org/2000/svg" viewBox="0 0 48 48"><g id="Layer_2" data-name="Layer 2"><g id="Layer_1-2" data-name="Layer 1"><path d="M39.88,14.8V33.19L24,42.38l-.09,0-.06,0L8.12,33.19V14.8L23.86,5.63Z" fill="#fff"/><path d="M29.36,31.39h9L36.9,29.3h0l-6.25-8.83h0L24,11.07l-6.65,9.4h0L11.1,29.3h0L9.63,31.39h9l-1.82-2.65H14.73l2.42-3.42h0l4.29,6.07h5.12l4.29-6.07,2.42,3.42H31.18Zm-4.17-2.65H22.81l-4-5.71L24,15.64,29.23,23Z" fill="#041a3a"/><path d="M42.73,24.71V34.83l-8,4.63,1,1.75,9-5.21V24.71ZM13.19,6.19,3.25,12V22.69h2V13.14l8.93-5.2ZM5.27,34.84V24.71h-2V36L13,41.64l1-1.75ZM33,40.47l-9,5.23L15.7,40.91l-1,1.75L24,48l10-5.78Zm2.49-33.8-1,1.75,8.27,4.73v9.54h2V12ZM23.82,0,14.94,5.17l1,1.75,7.88-4.59,8.88,5.08,1-1.75Z" fill="#fff"/><rect x="22.82" y="1.78" width="2.02" height="4.89" fill="#fff"/><rect x="21.63" y="42.66" width="4.68" height="2.02" transform="translate(-20.03 67.02) rotate(-89.2)" fill="#fff"/><rect x="5.94" y="12.06" width="2.02" height="4.33" transform="translate(-8.84 13.1) rotate(-59.9)" fill="#fff"/><rect x="40.34" y="31.2" width="2.02" height="5.75" transform="translate(-8.36 54.06) rotate(-61.39)" fill="#fff"/><rect x="38.28" y="13.23" width="5.21" height="2.02" transform="translate(-1.63 22.44) rotate(-30.11)" fill="#fff"/><rect x="4.8" y="32.81" width="4.33" height="2.02" transform="matrix(0.86, -0.5, 0.5, 0.86, -16.07, 8.1)" fill="#fff"/><rect width="48" height="48" fill="none"/></g></g></svg>