<svg width="41" height="40" viewBox="0 0 41 40" fill="none" xmlns="http://www.w3.org/2000/svg">
<path d="M20.4643 1.6665L3.83325 11.1237V30.0319L20.4643 39.4828L37.0824 30.0319V11.1237L20.4643 1.6665ZM32.1588 27.2302L20.4643 33.8794L8.76335 27.2302V13.9191L20.4643 7.26986L32.1588 13.9191V27.2302Z" fill="#002D74"/>
<path style="mix-blend-mode:multiply" d="M20.4644 39.4828L37.0825 30.0319V11.1237L20.4644 1.6665V7.27619L32.1588 13.9254V27.2366L20.4644 33.8794V39.4828Z" fill="url(#paint0_linear)"/>
<path style="mix-blend-mode:multiply" d="M20.4543 1.66661L3.83621 11.1175L3.83621 30.0257L20.4543 39.4829V33.8732L8.75987 27.224L8.75987 13.9128L20.4543 7.26996V1.66661Z" fill="url(#paint1_linear)"/>
<path d="M28.2189 24.9924L20.4569 29.4041L12.6885 24.9924V16.1627L20.4569 11.7446L28.2189 16.1627L24.988 18.0009L20.4569 15.421L15.9259 18.0009V23.1478L20.4569 25.7277L24.988 23.1478L28.2189 24.9924Z" fill="#002D74"/>
<defs>
<linearGradient id="paint0_linear" x1="28.7734" y1="39.4828" x2="28.7734" y2="20.5747" gradientUnits="userSpaceOnUse">
<stop stop-color="#002D74"/>
<stop offset="1" stop-color="#002D74" stop-opacity="0"/>
</linearGradient>
<linearGradient id="paint1_linear" x1="12.1453" y1="1.66661" x2="12.1453" y2="20.5748" gradientUnits="userSpaceOnUse">
<stop stop-color="#002D74"/>
<stop offset="1" stop-color="#002D74" stop-opacity="0"/>
</linearGradient>
</defs>
</svg>
