<svg width="34" height="34" viewBox="0 0 34 34" fill="none" xmlns="http://www.w3.org/2000/svg">
<path fill-rule="evenodd" clip-rule="evenodd" d="M16.9804 0.984985L2.93756 8.99572V25.018L16.9804 33.0296L31.023 25.018V8.99572L16.9804 0.984985Z" fill="#FEFEFE"/>
<path fill-rule="evenodd" clip-rule="evenodd" d="M16.9804 0.984985L2.93756 8.99572V25.018L16.9804 33.0296L31.023 25.018V8.99572L16.9804 0.984985ZM11.4359 7.91157H22.4873L23.8197 13.4788H10.1538L11.4359 7.91157ZM14.6201 17.4291L13.4148 14.3197H20.5711L19.3913 17.4291L19.7339 20.9028L16.9804 20.9153H14.2522L14.6201 17.4291ZM18.1354 24.5892V23.4862L20.6093 21.1414V17.4417L23.8451 15.3607L27.5376 18.1066L22.5119 26.7589H20.5203L18.1354 24.5892ZM6.42395 18.1066L10.1282 15.3856L13.4021 17.4417V21.1414L15.876 23.4862V24.5892L13.4913 26.784H11.4734L6.42395 18.1066Z" fill="#002D72"/>
<path fill-rule="evenodd" clip-rule="evenodd" d="M22.512 26.7589H20.5202L18.1355 24.5892V23.4862L20.6094 21.1414V17.4417L23.845 15.3607L27.5376 18.1066L22.512 26.7589ZM16.9803 0.984985V7.91173H22.4872L23.8197 13.4789H16.9803V14.3199H20.5712L19.3914 17.4291L19.7338 20.9028L16.9803 20.9153V33.0296L31.0231 25.0181V8.99572L16.9803 0.984985Z" fill="url(#paint0_linear_4547_1153)" style="mix-blend-mode:multiply"/>
<path fill-rule="evenodd" clip-rule="evenodd" d="M15.8761 24.5892L13.4912 26.784H11.4734L6.42389 18.1066L10.1283 15.3858L13.4022 17.4417V21.1414L15.8761 23.4862V24.5892ZM14.2522 20.9153L14.62 17.4291L13.4149 14.3199H16.9803V13.4789H10.1537L11.436 7.91173H16.9803V0.984985L2.9375 8.99572V25.0181L16.9803 33.0296V20.9153H14.2522Z" fill="url(#paint1_linear_4547_1153)" style="mix-blend-mode:multiply"/>
<defs>
<linearGradient id="paint0_linear_4547_1153" x1="29.5255" y1="29.5727" x2="29.5255" y2="4.36292" gradientUnits="userSpaceOnUse">
<stop stop-color="#002D72"/>
<stop offset="1" stop-color="#002D72" stop-opacity="0.01"/>
</linearGradient>
<linearGradient id="paint1_linear_4547_1153" x1="15.4827" y1="29.5727" x2="15.4827" y2="4.36292" gradientUnits="userSpaceOnUse">
<stop stop-color="#002D72" stop-opacity="0.01"/>
<stop offset="1" stop-color="#002D72"/>
</linearGradient>
</defs>
</svg>
