<svg width="1278" height="800" viewBox="0 0 1278 800" fill="none" xmlns="http://www.w3.org/2000/svg">
<rect width="1280" height="800" fill="#F3FAFE"/>
<mask id="mask0_4204_31543" style="mask-type:alpha" maskUnits="userSpaceOnUse" x="0" y="0" width="1280" height="800">
<rect width="1280" height="800" fill="white"/>
</mask>
<g mask="url(#mask0_4204_31543)">
<circle opacity="0.4" r="5.73529" transform="matrix(1 0 0 -1 886.618 271.647)" fill="#D8D8D8"/>
<circle opacity="0.4" r="4.77941" transform="matrix(1 0 0 -1 994.632 73.7794)" fill="#FFBF00"/>
<circle opacity="0.4" r="3.82353" transform="matrix(1 0 0 -1 773.824 88.1176)" fill="#1199FA"/>
<circle opacity="0.4" r="4.77941" transform="matrix(1 0 0 -1 916.25 102.456)" fill="#93D2FD"/>
<circle opacity="0.4" r="2.86765" transform="matrix(1 0 0 -1 1032.87 253.485)" fill="#E64B60"/>
<circle opacity="0.4" r="5.73529" transform="matrix(1 0 0 -1 1219.26 183.706)" fill="#20BCA4"/>
<circle opacity="0.4" r="3.82353" transform="matrix(1 0 0 -1 1138.97 135.912)" fill="#E64B60"/>
<circle opacity="0.4" r="1.91176" transform="matrix(1 0 0 -1 1094.04 193.265)" fill="white" fill-opacity="0.133878"/>
<circle opacity="0.4" r="5.73529" transform="matrix(1 0 0 -1 142.618 501.647)" fill="#D8D8D8"/>
<circle opacity="0.4" r="4.77941" transform="matrix(1 0 0 -1 250.632 303.779)" fill="#FFBF00"/>
<circle opacity="0.4" r="3.82353" transform="matrix(1 0 0 -1 29.8235 318.118)" fill="#1199FA"/>
<circle opacity="0.4" r="4.77941" transform="matrix(1 0 0 -1 172.25 332.456)" fill="#93D2FD"/>
<circle opacity="0.4" r="2.86765" transform="matrix(1 0 0 -1 288.868 483.485)" fill="#E64B60"/>
<circle opacity="0.4" r="5.73529" transform="matrix(1 0 0 -1 475.265 413.706)" fill="#20BCA4"/>
<circle opacity="0.4" r="3.82353" transform="matrix(1 0 0 -1 394.971 365.912)" fill="#E64B60"/>
<circle opacity="0.4" r="1.91176" transform="matrix(1 0 0 -1 350.044 423.265)" fill="white" fill-opacity="0.133878"/>
</g>
</svg>
