<svg width="120" height="24" viewBox="0 0 120 24" fill="none" xmlns="http://www.w3.org/2000/svg">
<path fill-rule="evenodd" clip-rule="evenodd" d="M30.8018 17.3762C28.1921 17.3762 26.2637 15.332 26.2637 12.8212C26.2637 10.3103 28.1921 8.21597 30.818 8.21597C32.4811 8.21597 33.5117 8.8315 34.3263 9.72939L33.0797 11.0755C32.4641 10.4275 31.8161 9.97856 30.8018 9.97856C29.3385 9.97856 28.2747 11.2421 28.2747 12.788C28.2747 14.367 29.3554 15.6306 30.9013 15.6306C31.8493 15.6306 32.5474 15.1816 33.1792 14.5336L34.3926 15.7301C33.5286 16.6943 32.5143 17.3762 30.8018 17.3762" fill="#1E3F6F"/>
<path fill-rule="evenodd" clip-rule="evenodd" d="M38.2102 17.3762H36.1991V8.23292H38.2102V10.3774C38.7586 9.06374 39.773 8.16586 41.3189 8.23292V10.3612H41.2024C39.4405 10.3612 38.2102 11.5082 38.2102 13.8355V17.3762Z" fill="#1E3F6F"/>
<path fill-rule="evenodd" clip-rule="evenodd" d="M51.8483 8.21597L47.4033 19.8376H45.364L46.3353 17.379L42.5271 8.21597H44.6716L47.2699 14.984L49.7645 8.21597H51.8483Z" fill="#1E3F6F"/>
<path fill-rule="evenodd" clip-rule="evenodd" d="M57.7827 9.96169C56.4197 9.96169 55.2225 11.0756 55.2225 12.788C55.2225 14.5005 56.4197 15.6137 57.7827 15.6137C59.1627 15.6137 60.2929 14.5337 60.2929 12.788C60.2929 11.0586 59.1458 9.96169 57.7827 9.96169M58.2479 17.3593C56.8023 17.3593 55.8875 16.628 55.2719 15.8135V19.837H53.2609V8.21605H55.2719V9.86146C55.9206 8.94734 56.8355 8.21605 58.2479 8.21605C60.326 8.21605 62.3378 9.86146 62.3378 12.788C62.3378 15.7139 60.343 17.3593 58.2479 17.3593" fill="#1E3F6F"/>
<path fill-rule="evenodd" clip-rule="evenodd" d="M66.7473 10.1282V14.4327C66.7473 15.2134 67.144 15.5289 67.8273 15.5289H68.6165V17.3254H67.2407C65.7767 17.3212 64.7362 16.6703 64.7362 14.7482V10.1282H63.6195V8.40092H64.7362V5.98962H66.7473V8.40092H68.6165V10.1282H66.7473Z" fill="#1E3F6F"/>
<path fill-rule="evenodd" clip-rule="evenodd" d="M74.979 9.97828C73.3661 9.97828 72.3355 11.2418 72.3355 12.7877C72.3355 14.3505 73.4494 15.6303 75.0122 15.6303C76.6407 15.6303 77.672 14.3675 77.672 12.8209C77.672 11.258 76.5581 9.97828 74.979 9.97828M74.979 17.3759C72.3023 17.3759 70.3237 15.3317 70.3237 12.8209C70.3237 10.2938 72.3186 8.21569 75.0122 8.21569C77.7051 8.21569 79.6837 10.2606 79.6837 12.7877C79.6837 15.2985 77.6882 17.3759 74.979 17.3759" fill="#1E3F6F"/>
<path fill-rule="evenodd" clip-rule="evenodd" d="M83.3652 15.5312V16.5449C83.3652 16.5879 83.344 16.6268 83.3066 16.6465L82.4292 17.1534C82.3925 17.1745 82.3473 17.1745 82.3128 17.1534L81.4332 16.6465C81.3979 16.6268 81.3746 16.5879 81.3746 16.5449V15.5312C81.3746 15.4903 81.3979 15.4515 81.4332 15.4296L82.3128 14.9228C82.3473 14.9016 82.3925 14.9016 82.4292 14.9228L83.3066 15.4296C83.344 15.4515 83.3652 15.4903 83.3652 15.5312" fill="#1E3F6F"/>
<path fill-rule="evenodd" clip-rule="evenodd" d="M98.9153 9.97828C97.3024 9.97828 96.2718 11.2418 96.2718 12.7877C96.2718 14.3505 97.3857 15.6303 98.9485 15.6303C100.577 15.6303 101.608 14.3675 101.608 12.8209C101.608 11.258 100.494 9.97828 98.9153 9.97828M98.9153 17.3759C96.2386 17.3759 94.26 15.3317 94.26 12.8209C94.26 10.2938 96.2548 8.21569 98.9485 8.21569C101.641 8.21569 103.62 10.2606 103.62 12.7877C103.62 15.2985 101.624 17.3759 98.9153 17.3759" fill="#1E3F6F"/>
<path fill-rule="evenodd" clip-rule="evenodd" d="M89.49 17.3659C86.8803 17.3158 84.9914 15.2341 85.0401 12.724C85.0881 10.2146 87.0561 8.15767 89.682 8.20779C91.3443 8.23955 92.3629 8.87414 93.1606 9.78755L91.8879 11.1097C91.2858 10.4497 90.6462 9.98873 89.6319 9.96896C88.1693 9.94073 87.0808 11.1838 87.0512 12.7297C87.0208 14.3087 88.0775 15.5927 89.6227 15.6224C90.5707 15.6407 91.2773 15.2052 91.9211 14.5692L93.1119 15.789C92.2295 16.7363 91.2025 17.3984 89.49 17.3659" fill="#1E3F6F"/>
<path fill-rule="evenodd" clip-rule="evenodd" d="M115.577 8.21597C117.489 8.21597 118.652 9.42939 118.652 11.5739V17.3762H116.641V12.1894C116.641 10.7932 115.992 10.0449 114.862 10.0449C113.765 10.0449 112.983 10.8094 112.983 12.2226V17.3762H110.972V12.1724C110.972 10.8094 110.306 10.0449 109.193 10.0449C108.079 10.0449 107.314 10.8764 107.314 12.2395V17.3762H105.302V8.21597H107.314V9.72939C107.88 8.94797 108.645 8.21597 109.991 8.21597C111.254 8.21597 112.135 8.8315 112.601 9.76186C113.316 8.8315 114.247 8.21597 115.577 8.21597" fill="#1E3F6F"/>
<path fill-rule="evenodd" clip-rule="evenodd" d="M13.7606 19.0431H12.3608L10.6844 17.4993V16.7144L12.4229 15.0464V12.4141L14.698 10.9339L17.2935 12.8871L13.7606 19.0431ZM7.95401 14.8854L8.21306 12.405L7.3653 10.1927H12.3961L11.5674 12.405L11.8074 14.8763L9.87189 14.8854H7.95401ZM9.09612 17.4993L7.41895 19.0607H6.00083L2.45095 12.8871L5.05495 10.9516L7.35683 12.4141V15.0464L9.09612 16.7144V17.4993ZM5.97471 5.63414H13.7437L14.6804 9.59485H5.07259L5.97471 5.63414ZM9.87189 0.705669L0.00012207 6.40496V17.8043L9.87189 23.5043L19.7444 17.8043V6.40496L9.87189 0.705669Z" fill="#1E3F6F"/>
<path fill-rule="evenodd" clip-rule="evenodd" d="M0 6.40496L9.87176 0.705669V5.63414H5.97459L5.07318 9.59485H9.87176V10.1927H7.36588L8.21294 12.405L7.95459 14.8854H9.87176V23.5043L0 17.8043V6.40496ZM9.096 17.4993V16.7144L7.35671 15.0464V12.4141L5.05482 10.9516L2.45082 12.8871L6.00071 19.0607H7.41882L9.096 17.4993Z" fill="url(#paint0_linear_4271_2532)"/>
<mask id="mask0_4271_2532" style="mask-type:alpha" maskUnits="userSpaceOnUse" x="0" y="0" width="10" height="24">
<path fill-rule="evenodd" clip-rule="evenodd" d="M0 6.40496L9.87176 0.705669V5.63414H5.97459L5.07318 9.59485H9.87176V10.1927H7.36588L8.21294 12.405L7.95459 14.8854H9.87176V23.5043L0 17.8043V6.40496ZM9.096 17.4993V16.7144L7.35671 15.0464V12.4141L5.05482 10.9516L2.45082 12.8871L6.00071 19.0607H7.41882L9.096 17.4993Z" fill="white"/>
</mask>
<g mask="url(#mask0_4271_2532)">
</g>
<path fill-rule="evenodd" clip-rule="evenodd" d="M13.7604 19.0431L17.2941 12.8871L14.6978 10.9339L12.4235 12.4141V15.0464L10.6842 16.7144V17.4993L12.3606 19.0431H13.7604ZM9.8717 0.705669L19.7442 6.40496V17.8043L9.8717 23.5043V14.8854L11.8079 14.8763L11.5672 12.405L12.3966 10.1927H9.8717V9.59485H14.6802L13.7435 5.63414H9.8717V0.705669Z" fill="url(#paint1_linear_4271_2532)"/>
<mask id="mask1_4271_2532" style="mask-type:alpha" maskUnits="userSpaceOnUse" x="9" y="0" width="11" height="24">
<path fill-rule="evenodd" clip-rule="evenodd" d="M13.7604 19.0431L17.2941 12.8871L14.6978 10.9339L12.4235 12.4141V15.0464L10.6842 16.7144V17.4993L12.3606 19.0431H13.7604ZM9.8717 0.705669L19.7442 6.40496V17.8043L9.8717 23.5043V14.8854L11.8079 14.8763L11.5672 12.405L12.3966 10.1927H9.8717V9.59485H14.6802L13.7435 5.63414H9.8717V0.705669Z" fill="white"/>
</mask>
<g mask="url(#mask1_4271_2532)">
</g>
<defs>
<linearGradient id="paint0_linear_4271_2532" x1="2.46794" y1="0.705669" x2="2.46794" y2="12.105" gradientUnits="userSpaceOnUse">
<stop stop-color="#021E3F"/>
<stop stop-color="#022045"/>
<stop offset="1" stop-color="#002A67"/>
</linearGradient>
<linearGradient id="paint1_linear_4271_2532" x1="17.1405" y1="22.8783" x2="17.1405" y2="12.105" gradientUnits="userSpaceOnUse">
<stop stop-color="#021E3F"/>
<stop offset="1" stop-color="#002A67"/>
</linearGradient>
</defs>
</svg>
