<svg width="1200" height="86" viewBox="0 0 1200 86" fill="none" xmlns="http://www.w3.org/2000/svg">
<path d="M115.44 62.4898C113.195 62.5154 110.967 62.0909 108.888 61.2412C106.809 60.3916 104.922 59.1341 103.337 57.5429C101.752 55.9517 100.503 54.0592 99.6616 51.977C98.8205 49.8948 98.4051 47.6652 98.44 45.4198C98.4041 43.1579 98.8199 40.9117 99.6631 38.8126C100.506 36.7135 101.76 34.8038 103.351 33.1954C104.941 31.587 106.837 30.3123 108.927 29.4459C111.016 28.5795 113.258 28.1388 115.52 28.1497C117.997 28.044 120.467 28.499 122.743 29.4807C125.02 30.4625 127.046 31.9457 128.67 33.8197L123.99 38.8197C121.69 36.3897 119.26 34.7097 115.45 34.7097C109.97 34.7097 105.98 39.4498 105.98 45.2398C105.98 51.0298 109.98 55.8997 115.83 55.8997C119.38 55.8997 122 54.2098 124.36 51.7798L128.91 56.2697C125.66 59.9297 121.86 62.4898 115.44 62.4898Z" fill="#002D74"/>
<path d="M143.21 62.4904H135.67V28.2204H143.21V36.2204C145.27 31.3004 149.07 27.9404 154.87 28.2204V36.2204H154.43C147.82 36.2204 143.21 40.5204 143.21 49.2204V62.4904Z" fill="#002D74"/>
<path d="M194.33 28.1504L177.67 71.7104H170.03L173.67 62.5004L159.4 28.1504H167.43L177.17 53.5204L186.52 28.1504H194.33Z" fill="#002D74"/>
<path d="M218.32 62.4304C216.129 62.4507 213.966 61.9324 212.022 60.9211C210.077 59.9098 208.411 58.4363 207.17 56.6304V71.7204H199.63V28.1504H207.17V34.3204C209.6 30.9004 213.03 28.1504 218.32 28.1504C226.11 28.1504 233.65 34.3204 233.65 45.2904C233.65 56.2604 226.17 62.4304 218.32 62.4304ZM216.58 34.7204C211.47 34.7204 206.98 38.8904 206.98 45.3104C206.98 51.7304 211.47 55.9004 216.58 55.9004C221.69 55.9004 225.99 51.9004 225.99 45.3104C225.99 38.7204 221.69 34.7204 216.58 34.7204Z" fill="#002D74"/>
<path d="M250.18 35.3196V51.4596C250.18 54.3796 251.67 55.5696 254.23 55.5696H257.23V62.2996H252C246.51 62.2996 242.61 59.8396 242.61 52.6396V35.3196H238.43V28.8496H242.61V19.8496H250.15V28.8496H257.15V35.3196H250.18Z" fill="#002D74"/>
<path d="M281 62.49C278.724 62.5503 276.459 62.1527 274.34 61.3211C272.22 60.4894 270.29 59.2404 268.662 57.6483C267.035 56.0562 265.743 54.1535 264.865 52.0529C263.987 49.9523 263.54 47.6967 263.55 45.42C263.456 41.9286 264.407 38.4888 266.281 35.5411C268.155 32.5935 270.865 30.2724 274.066 28.8751C277.267 27.4778 280.813 27.0679 284.248 27.6979C287.683 28.328 290.852 29.9694 293.349 32.4118C295.846 34.8541 297.557 37.9862 298.262 41.4069C298.968 44.8275 298.636 48.3809 297.309 51.6119C295.983 54.8428 293.722 57.6042 290.816 59.5422C287.911 61.4802 284.493 62.5067 281 62.49ZM281 34.72C274.95 34.72 271.09 39.46 271.09 45.25C271.09 51.04 275.26 55.91 281.09 55.91C287.2 55.91 291.09 51.17 291.09 45.38C291.09 39.59 287 34.72 281 34.72Z" fill="#002D74"/>
<path d="M370.76 62.49C368.484 62.5503 366.219 62.1527 364.1 61.3211C361.98 60.4894 360.05 59.2404 358.422 57.6483C356.795 56.0562 355.503 54.1535 354.625 52.0529C353.747 49.9523 353.3 47.6967 353.31 45.42C353.216 41.9286 354.167 38.4888 356.041 35.5411C357.915 32.5935 360.625 30.2724 363.826 28.8751C367.027 27.4778 370.573 27.0679 374.008 27.6979C377.443 28.328 380.612 29.9694 383.109 32.4118C385.606 34.8541 387.317 37.9862 388.022 41.4069C388.728 44.8275 388.396 48.3809 387.069 51.6119C385.743 54.8428 383.482 57.6042 380.576 59.5422C377.671 61.4802 374.253 62.5067 370.76 62.49ZM370.76 34.76C364.71 34.76 360.85 39.5 360.85 45.29C360.85 51.08 365.02 55.95 370.85 55.95C376.96 55.95 380.85 51.21 380.85 45.42C380.85 39.63 376.68 34.72 370.76 34.72V34.76Z" fill="#002D74"/>
<path d="M433.21 28.1499C440.38 28.1499 444.74 32.6999 444.74 40.7399V62.4899H437.2V43.0499C437.2 37.8099 434.77 35.0499 430.53 35.0499C426.29 35.0499 423.53 37.9199 423.53 43.2099V62.5299H416V43.0299C416 37.9199 413.51 35.0299 409.33 35.0299C405.15 35.0299 402.33 38.1399 402.33 43.2499V62.5099H394.7V28.1499H402.24V33.8199C404.36 30.8999 407.24 28.1499 412.24 28.1499C414.26 28.0558 416.263 28.5548 418.003 29.5854C419.742 30.6161 421.142 32.1332 422.03 33.9499C424.74 30.4599 428.23 28.1499 433.21 28.1499Z" fill="#002D74"/>
<path d="M312.47 55.57V59.3701C312.472 59.4475 312.452 59.524 312.414 59.5911C312.375 59.6581 312.318 59.7132 312.25 59.7501L308.96 61.65C308.893 61.6896 308.817 61.7106 308.74 61.7106C308.663 61.7106 308.587 61.6896 308.52 61.65L305.23 59.7501C305.163 59.7115 305.108 59.6561 305.069 59.5894C305.031 59.5227 305.01 59.4471 305.01 59.3701V55.57C305.012 55.4933 305.033 55.4185 305.072 55.3521C305.11 55.2857 305.165 55.23 305.23 55.19L308.52 53.29C308.587 53.2504 308.663 53.2295 308.74 53.2295C308.817 53.2295 308.893 53.2504 308.96 53.29L312.25 55.19C312.317 55.2285 312.372 55.284 312.411 55.3506C312.449 55.4173 312.47 55.4929 312.47 55.57Z" fill="#002D74"/>
<path d="M335.43 62.4501C330.914 62.3014 326.639 60.3787 323.531 57.0989C320.424 53.8192 318.734 49.4466 318.829 44.9294C318.924 40.4121 320.795 36.1143 324.037 32.9677C327.28 29.821 331.632 28.0794 336.15 28.1201C338.623 28.0662 341.075 28.5705 343.326 29.5954C345.577 30.6203 347.567 32.1396 349.15 34.0401L344.38 39.0401C342.12 36.5701 339.72 34.8401 335.92 34.7601C330.44 34.6601 326.36 39.3201 326.25 45.1101C326.14 50.9001 330.09 55.8401 335.89 55.9601C339.44 56.0201 342.09 54.3901 344.5 51.9601L348.96 56.5301C345.7 60.0901 341.85 62.5701 335.43 62.4501Z" fill="#002D74"/>
<g style="mix-blend-mode:multiply">
<path style="mix-blend-mode:multiply" d="M37 0V18.48H51.5L55 33.3199H37V35.56H46.46L43.36 43.86L44.26 53.12H37V85.43L74 64.06V21.37L37 0ZM51.57 68.72H46.32L40 62.95V60.0099L46.55 53.72V43.85L55.08 38.3L64.81 45.62L51.57 68.72Z" fill="url(#paint0_linear_4206_32009)"/>
</g>
<path style="mix-blend-mode:multiply" d="M29.8 53.15L30.8 43.86L27.63 35.56H37V33.3199H19L22.38 18.48H37V0L0 21.37V64.09L37 85.46V53.15H29.8ZM34.08 62.95L27.8 68.8H22.48L9.17 45.66L18.94 38.41L27.56 43.89V53.72L34.08 59.97V62.95Z" fill="url(#paint1_linear_4206_32009)"/>
<path d="M488.27 0H486.66V85.46H488.27V0Z" fill="#898A8D"/>
<path d="M530.24 28.1602H543.59C554.36 28.1602 561.8 35.5502 561.8 45.1602V45.2601C561.8 54.9001 554.36 62.3901 543.59 62.3901H530.24V28.1602ZM537.77 34.9601V55.6102H543.59C549.76 55.6102 553.92 51.4601 553.92 45.3901V45.2902C553.92 39.2202 549.76 34.9601 543.59 34.9601H537.77Z" fill="#898A8D"/>
<path d="M571.1 28.1602H596.94V34.8702H578.58V41.8102H594.73V48.5201H578.58V55.7202H597.18V62.4302H571.1V28.1602Z" fill="#898A8D"/>
<path d="M608.29 28.1602H634.37V35.0101H615.83V42.3002H632.17V49.1602H615.83V62.4202H608.29V28.1602Z" fill="#898A8D"/>
<path d="M645.63 28.1602H653.16V62.4202H645.63V28.1602Z" fill="#898A8D"/>
<path d="M681.25 28.1602H694.61C705.38 28.1602 712.82 35.5502 712.82 45.1602V45.2601C712.82 54.9001 705.38 62.3901 694.61 62.3901H681.25V28.1602ZM688.79 34.9601V55.6102H694.61C700.78 55.6102 704.94 51.4601 704.94 45.3901V45.2902C704.94 39.2202 700.78 34.9601 694.61 34.9601H688.79Z" fill="#898A8D"/>
<path d="M722.46 28.1602H748.3V34.8702H730V41.8102H746.1V48.5201H730V55.7202H748.59V62.4302H722.46V28.1602Z" fill="#898A8D"/>
<path d="M758 57.4296L762.45 52.0895C765.53 54.6395 768.76 56.2496 772.68 56.2496C775.76 56.2496 777.62 55.0295 777.62 53.0195V52.9195C777.62 51.0095 776.45 50.0395 770.72 48.5695C763.82 46.8095 759.37 44.8995 759.37 38.0995V37.9996C759.37 31.7796 764.37 27.6695 771.37 27.6695C775.989 27.5954 780.488 29.1376 784.09 32.0295L780.2 37.7195C777.2 35.6195 774.2 34.3495 771.3 34.3495C768.4 34.3495 766.89 35.6695 766.89 37.3495V37.4495C766.89 39.6995 768.36 40.4495 774.28 41.9495C781.28 43.7595 785.15 46.2595 785.15 52.2295V52.3295C785.15 59.1295 779.96 62.9495 772.57 62.9495C767.199 62.969 762.01 61.0032 758 57.4296Z" fill="#898A8D"/>
<path d="M796.36 28.1602H803.89V43.1602L817.69 28.1602H826.94L813 42.7202L827.58 62.4401H818.58L807.96 47.8502L803.96 51.9601V62.4202H796.43L796.36 28.1602Z" fill="#898A8D"/>
<path d="M843 35.1102H832.57V28.1602H861V35.1102H850.53V62.4202H843V35.1102Z" fill="#898A8D"/>
<path d="M867.12 45.3903V45.2903C867.12 35.5503 874.8 27.5703 885.37 27.5703C895.94 27.5703 903.53 35.4503 903.53 45.1903V45.2903C903.53 55.0303 895.85 63.0004 885.27 63.0004C874.69 63.0004 867.12 55.1303 867.12 45.3903ZM895.65 45.3903V45.2903C895.65 39.4203 891.34 34.5203 885.27 34.5203C879.2 34.5203 875 39.3203 875 45.1903V45.2903C875 51.1603 879.3 56.0604 885.37 56.0604C891.44 56.0604 895.65 51.2603 895.65 45.3903Z" fill="#898A8D"/>
<path d="M913.61 28.1602H927.61C935.78 28.1602 940.72 33.0102 940.72 40.0002V40.1002C940.72 48.0302 934.55 52.1002 926.87 52.1002H921.15V62.4202H913.61V28.1602ZM927.12 45.4401C930.88 45.4401 933.12 43.1802 933.12 40.2502V40.1501C933.12 36.7701 930.77 34.9601 927 34.9601H921.18V45.4401H927.12Z" fill="#898A8D"/>
<path d="M964.36 28.1595H972.43L979.53 51.3596L987.21 28.0596H993.67L1001.35 51.3596L1008.45 28.1595H1016.33L1004.63 62.6595H998.07L990.34 40.2496L982.61 62.6595H976.05L964.36 28.1595Z" fill="#898A8D"/>
<path d="M1034.19 27.9199H1041.19L1055.87 62.4199H1047.99L1044.86 54.7299H1030.37L1027.24 62.4199H1019.56L1034.19 27.9199ZM1042.12 48.0799L1037.57 36.9699L1033 48.0799H1042.12Z" fill="#898A8D"/>
<path d="M1066 28.1602H1073.54V55.5701H1090.62V62.4202H1066V28.1602Z" fill="#898A8D"/>
<path d="M1101.09 28.1602H1108.62V55.5701H1125.7V62.4202H1101.09V28.1602Z" fill="#898A8D"/>
<path d="M1136.37 28.1602H1162.21V34.8702H1143.86V41.8102H1160V48.5201H1143.85V55.7202H1162.44V62.4302H1136.36L1136.37 28.1602Z" fill="#898A8D"/>
<path d="M1182 35.1102H1171.6V28.1602H1200V35.1102H1189.58V62.4202H1182V35.1102Z" fill="#898A8D"/>
<path d="M37 0L0 21.37V64.09L37 85.46L74 64.09V21.37L37 0ZM37 0L0 21.37V64.09L37 85.46L74 64.09V21.37L37 0Z" fill="white"/>
<path d="M37 0L0 21.37V64.09L37 85.46L74 64.09V21.37L37 0ZM22.38 18.48H51.5L55 33.3199H19L22.38 18.48ZM34.08 62.95L27.8 68.8H22.48L9.17 45.66L18.94 38.41L27.56 43.89V53.72L34.08 59.97V62.95ZM29.8 53.15L30.8 43.86L27.63 35.56H46.45L43.35 43.86L44.25 53.12H36.99L29.8 53.15ZM51.57 68.72H46.32L40 62.95V60.0099L46.55 53.72V43.85L55.08 38.3L64.81 45.62L51.57 68.72Z" fill="#002D74"/>
<defs>
<linearGradient id="paint0_linear_4206_32009" x1="55.49" y1="76.24" x2="55.49" y2="9.01" gradientUnits="userSpaceOnUse">
<stop stop-color="#002D74"/>
<stop offset="1" stop-color="#002D74" stop-opacity="0"/>
</linearGradient>
<linearGradient id="paint1_linear_4206_32009" x1="18.49" y1="76.24" x2="18.49" y2="9.01" gradientUnits="userSpaceOnUse">
<stop stop-color="#002D74" stop-opacity="0"/>
<stop offset="1" stop-color="#002D74"/>
</linearGradient>
</defs>
</svg>
