<svg width="850" height="160" viewBox="0 0 850 160" fill="none" xmlns="http://www.w3.org/2000/svg">
<path d="M485.148 79.8015H496.187C498.129 79.6732 500.078 79.9447 501.911 80.5992C503.745 81.2536 505.425 82.2772 506.847 83.6066C508.27 84.936 509.405 86.543 510.182 88.3283C510.959 90.1135 511.361 92.0392 511.365 93.9862C511.365 95.9379 510.965 97.8688 510.19 99.6601C509.416 101.451 508.282 103.065 506.86 104.402C505.438 105.738 503.758 106.77 501.922 107.432C500.086 108.095 498.134 108.374 496.187 108.254H485.148V79.8015ZM496.187 102.679C497.322 102.725 498.456 102.537 499.516 102.126C500.575 101.714 501.539 101.089 502.347 100.289C503.155 99.4893 503.789 98.5315 504.211 97.4756C504.632 96.4196 504.831 95.2882 504.796 94.1518C504.843 93.0086 504.653 91.868 504.236 90.8023C503.82 89.7365 503.187 88.7686 502.378 87.9595C501.569 87.1505 500.601 86.518 499.536 86.1019C498.47 85.6857 497.33 85.4949 496.187 85.5416H491.357V102.762L496.187 102.679Z" fill="#9EA1A2"/>
<path d="M519.202 79.8015H540.727V85.3209H525.439V91.1161H538.879V96.6355H525.439V102.624H540.81V108.143H519.091L519.202 79.8015Z" fill="#9EA1A2"/>
<path d="M549.089 79.8015H570.835V85.3209H555.381V91.3922H568.986V97.1047H555.381V108.143H549.089V79.8015Z" fill="#9EA1A2"/>
<path d="M578.121 79.8015H584.413V108.226H578.121V79.8015Z" fill="#9EA1A2"/>
<path d="M605.635 79.8015H612.369L618.275 99.1193L624.677 79.8015H630.196L636.571 99.1193L642.505 79.8015H649.045L639.303 108.53H633.784L627.326 89.8744L620.896 108.53H615.377L605.635 79.8015Z" fill="#9EA1A2"/>
<path d="M662.816 79.498H668.611L680.836 108.226H674.269L671.674 101.824H659.615L656.855 108.226H650.452L662.816 79.498ZM669.439 96.2767L665.63 87.0319L661.85 96.2767H669.439Z" fill="#9EA1A2"/>
<path d="M687.073 79.8015H693.365V102.624H707.577V108.337H687.073V79.8015Z" fill="#9EA1A2"/>
<path d="M714.173 79.8015H720.466V102.624H734.678V108.337H714.173V79.8015Z" fill="#9EA1A2"/>
<path d="M741.163 79.8015H762.688V85.3209H747.4V91.1161H760.867V96.6355H747.4V102.624H762.909V108.143H741.163V79.8015Z" fill="#9EA1A2"/>
<path d="M777.37 85.4864H768.705V79.8015H792.355V85.5968H783.662V108.337H777.37V85.4864Z" fill="#9EA1A2"/>
<path d="M450.265 58H449.079V130H450.265V58Z" fill="#9EA1A2"/>
<path d="M77.1844 59.5179L47.3797 76.7383V111.151L77.1844 128.372L106.989 111.151V76.7383L77.1844 59.5179ZM65.4281 74.0063H88.8854L91.6451 85.9555H62.6408L65.4281 74.0063ZM74.8384 109.882L69.7886 114.601H65.4834L54.7755 95.9732L62.6408 90.1227L69.5953 94.5383V102.486L74.8384 107.509V109.882ZM71.3888 101.989L72.1616 94.5106L69.6229 87.8321H84.8011L82.29 94.5106L83.0352 101.962H71.3888V101.989ZM88.9406 114.546H84.6906L79.6402 109.882V107.398L84.884 102.376V94.4278L91.7556 89.9571L99.5933 95.8629L88.9406 114.546Z" fill="#003688"/>
<path d="M140.933 108.199C139.069 108.217 137.22 107.862 135.495 107.155C133.77 106.448 132.204 105.402 130.89 104.08C129.576 102.758 128.539 101.187 127.842 99.4576C127.145 97.7287 126.801 95.8778 126.831 94.0139C126.801 92.1389 127.146 90.2768 127.845 88.5366C128.544 86.7965 129.583 85.2132 130.901 83.8795C132.22 82.5458 133.791 81.4883 135.523 80.7692C137.255 80.05 139.113 79.6836 140.988 79.6912C143.065 79.5954 145.136 79.97 147.047 80.7872C148.959 81.6043 150.661 82.8428 152.027 84.4101L148.163 88.6049C147.304 87.5489 146.224 86.695 144.998 86.1036C143.773 85.5122 142.431 85.1978 141.07 85.1829C139.978 85.2358 138.907 85.5046 137.919 85.9739C136.931 86.4432 136.045 87.1037 135.314 87.9171C134.583 88.7306 134.02 89.6808 133.658 90.713C133.296 91.7453 133.142 92.839 133.206 93.931C133.13 95.0638 133.288 96.2001 133.67 97.2691C134.052 98.3382 134.65 99.3171 135.426 100.145C136.203 100.974 137.141 101.633 138.183 102.083C139.226 102.534 140.349 102.765 141.485 102.762C142.843 102.731 144.178 102.409 145.401 101.819C146.625 101.228 147.708 100.383 148.577 99.3401L152.358 103.066C150.993 104.762 149.247 106.111 147.261 107.003C145.276 107.895 143.107 108.305 140.933 108.199Z" fill="#003688"/>
<path d="M163.976 108.199H157.712V79.8015H163.976V86.4799C164.643 84.4414 165.965 82.6809 167.738 81.4728C169.51 80.2647 171.632 79.677 173.773 79.8015V86.4248H173.415C167.895 86.4248 164.114 89.9848 164.114 97.2427L163.976 108.199Z" fill="#003688"/>
<path d="M206.392 79.7186L192.566 115.843H186.247L189.255 108.199L177.416 79.7186H184.094L192.18 100.747L199.935 79.7186H206.392Z" fill="#003688"/>
<path d="M226.207 108.143C224.39 108.166 222.595 107.739 220.983 106.902C219.37 106.064 217.988 104.841 216.962 103.342V115.843H210.697V79.8015H216.962V84.9345C217.95 83.3736 219.315 82.0857 220.93 81.1889C222.545 80.2921 224.36 79.8151 226.207 79.8015C232.665 79.8015 238.929 84.9344 238.929 94.0414C238.929 103.148 232.803 108.143 226.207 108.143ZM224.772 85.1277C222.588 85.3399 220.561 86.3576 219.087 87.9825C217.612 89.6074 216.795 91.723 216.795 93.9172C216.795 96.1115 217.612 98.2273 219.087 99.8521C220.561 101.477 222.588 102.495 224.772 102.707C226.913 102.438 228.884 101.397 230.311 99.7782C231.739 98.1598 232.527 96.0756 232.527 93.9172C232.527 91.7589 231.739 89.6749 230.311 88.0565C228.884 86.438 226.913 85.3965 224.772 85.1277Z" fill="#003688"/>
<path d="M252.728 85.652V99.1193C252.654 99.5806 252.689 100.053 252.831 100.498C252.973 100.943 253.218 101.348 253.546 101.681C253.873 102.014 254.275 102.266 254.717 102.415C255.16 102.565 255.632 102.608 256.095 102.541H258.55V108.061H254.273C249.719 108.061 246.463 106.019 246.463 100.058V85.6797H243.014V80.1603H246.463V72.6815H252.728V80.1603H258.55V85.6797L252.728 85.652Z" fill="#003688"/>
<path d="M278.337 108.198C276.448 108.243 274.569 107.908 272.811 107.215C271.053 106.522 269.452 105.483 268.102 104.161C266.752 102.839 265.68 101.26 264.949 99.5175C264.219 97.7747 263.844 95.9035 263.848 94.0138C263.772 91.1132 264.563 88.2556 266.12 85.8072C267.678 83.3589 269.93 81.4313 272.59 80.2714C275.249 79.1114 278.195 78.7721 281.049 79.2966C283.903 79.8212 286.535 81.1859 288.608 83.2158C290.681 85.2458 292.102 87.8485 292.687 90.6906C293.272 93.5327 292.995 96.4847 291.891 99.1684C290.788 101.852 288.909 104.145 286.494 105.754C284.079 107.363 281.238 108.214 278.337 108.198ZM278.337 85.1828C277.209 85.181 276.093 85.4096 275.056 85.8547C274.02 86.2998 273.086 86.9519 272.311 87.771C271.535 88.5902 270.936 89.5592 270.548 90.6185C270.161 91.6777 269.994 92.8049 270.058 93.931C270.002 95.0591 270.174 96.1869 270.564 97.2472C270.953 98.3075 271.552 99.2787 272.324 100.103C273.097 100.927 274.027 101.587 275.06 102.044C276.093 102.5 277.207 102.745 278.337 102.762C279.465 102.764 280.581 102.535 281.617 102.09C282.654 101.645 283.588 100.993 284.363 100.174C285.139 99.3544 285.739 98.3856 286.126 97.3263C286.513 96.2671 286.68 95.1399 286.616 94.0138C286.649 92.898 286.46 91.7865 286.061 90.744C285.662 89.7014 285.06 88.7484 284.29 87.94C283.52 87.1316 282.598 86.4839 281.576 86.0343C280.554 85.5847 279.453 85.3422 278.337 85.3208V85.1828Z" fill="#003688"/>
<path d="M352.766 108.198C350.878 108.243 349 107.908 347.244 107.214C345.487 106.521 343.888 105.482 342.54 104.16C341.192 102.837 340.123 101.258 339.395 99.5155C338.668 97.7729 338.297 95.9022 338.305 94.0139C338.228 91.1121 339.02 88.2533 340.578 85.8044C342.137 83.3555 344.391 81.428 347.052 80.2689C349.714 79.1098 352.661 78.7718 355.515 79.2987C358.37 79.8255 361.002 81.1931 363.074 83.2258C365.146 85.2585 366.565 87.8638 367.146 90.7078C367.728 93.5517 367.447 96.5046 366.339 99.1878C365.232 101.871 363.348 104.162 360.93 105.768C358.511 107.373 355.669 108.219 352.766 108.198ZM352.766 85.1829C351.638 85.181 350.522 85.4097 349.485 85.8548C348.449 86.2998 347.514 86.9519 346.739 87.7711C345.964 88.5902 345.364 89.5593 344.977 90.6185C344.589 91.6778 344.423 92.805 344.487 93.931C344.435 95.0582 344.609 96.1844 345 97.243C345.391 98.3016 345.99 99.2712 346.761 100.094C347.533 100.918 348.462 101.578 349.493 102.036C350.525 102.494 351.638 102.741 352.766 102.762C353.894 102.764 355.01 102.535 356.046 102.09C357.083 101.645 358.017 100.993 358.792 100.174C359.567 99.3544 360.167 98.3856 360.554 97.3264C360.942 96.2671 361.109 95.1399 361.045 94.0139C361.078 92.898 360.889 91.7865 360.49 90.744C360.09 89.7014 359.488 88.7484 358.718 87.94C357.949 87.1316 357.026 86.4839 356.005 86.0343C354.983 85.5847 353.882 85.3422 352.766 85.3208V85.1829Z" fill="#003688"/>
<path d="M404.592 79.8016C410.553 79.8016 414.169 83.5823 414.169 90.2607V108.309H407.904V92.1649C407.904 87.8322 405.89 85.5141 402.385 85.5141C398.88 85.5141 396.534 87.8875 396.534 92.2754V108.309H390.27V92.1098C390.27 87.8875 388.2 85.5141 384.75 85.5141C381.301 85.5141 378.9 88.0806 378.9 92.3305V108.309H372.636V79.8016H378.9V84.5207C379.766 83.0963 380.981 81.9157 382.429 81.0901C383.878 80.2646 385.512 79.8211 387.179 79.8016C388.855 79.7288 390.515 80.1469 391.957 81.0049C393.398 81.8628 394.558 83.1232 395.292 84.631C396.321 83.1185 397.71 81.8853 399.333 81.0423C400.956 80.1993 402.763 79.773 404.592 79.8016Z" fill="#003688"/>
<path d="M304.417 102.459V105.604C304.414 105.671 304.394 105.736 304.361 105.794C304.327 105.851 304.28 105.9 304.223 105.936L301.464 107.509C301.408 107.536 301.347 107.55 301.284 107.55C301.222 107.55 301.161 107.536 301.105 107.509L298.345 105.936C298.292 105.899 298.249 105.849 298.22 105.791C298.191 105.733 298.178 105.669 298.18 105.604V102.459C298.178 102.394 298.191 102.33 298.22 102.272C298.249 102.214 298.292 102.164 298.345 102.127L301.105 100.554C301.161 100.527 301.222 100.513 301.284 100.513C301.347 100.513 301.408 100.527 301.464 100.554L304.223 102.127C304.28 102.163 304.327 102.212 304.361 102.269C304.394 102.327 304.414 102.392 304.417 102.459Z" fill="#003688"/>
<path d="M323.458 108.171C321.588 108.131 319.744 107.723 318.031 106.971C316.319 106.218 314.772 105.136 313.478 103.786C310.864 101.058 309.441 97.4043 309.521 93.6276C309.602 89.851 311.179 86.261 313.907 83.6474C316.634 81.0338 320.288 79.6108 324.065 79.6913C326.122 79.6386 328.165 80.0532 330.038 80.904C331.912 81.7549 333.568 83.0198 334.883 84.6034L330.909 88.7153C330.079 87.6375 329.02 86.7585 327.807 86.1426C326.594 85.5267 325.259 85.1895 323.899 85.1554C322.807 85.1874 321.733 85.4352 320.737 85.8847C319.741 86.3342 318.843 86.9764 318.097 87.7743C317.35 88.5721 316.769 89.5099 316.387 90.5334C316.004 91.557 315.828 92.6461 315.869 93.738C315.771 94.8611 315.903 95.9925 316.258 97.0627C316.612 98.133 317.181 99.1194 317.93 99.9617C318.68 100.804 319.594 101.485 320.615 101.961C321.637 102.438 322.745 102.701 323.872 102.735C325.228 102.726 326.567 102.429 327.8 101.863C329.032 101.296 330.13 100.474 331.019 99.4505L334.718 103.259C333.348 104.892 331.618 106.185 329.664 107.037C327.711 107.889 325.587 108.278 323.458 108.171Z" fill="#003688"/>
<path d="M82.2346 94.4553L84.7459 87.7769H69.5401L72.1066 94.4553L71.3338 101.962H77.1292L82.9521 101.906L82.2346 94.4553Z" fill="white"/>
<path d="M91.7003 90.0122L84.8287 94.4829V102.431L79.5577 107.481V109.854L84.6355 114.491H88.8578L99.5378 95.9179L91.7003 90.0122Z" fill="white"/>
<path d="M88.8026 74.0061H65.3454L62.6133 85.9555H91.6451L88.8026 74.0061Z" fill="white"/>
<path d="M69.5124 94.4829L62.558 90.0674L54.693 95.918L65.4281 114.546H69.7056L74.7834 109.854V107.481L69.5124 102.431V94.4829Z" fill="white"/>
<path d="M77.1844 59.5179V74.0063H88.8854L91.6451 85.9555H77.1844V87.777H84.8011L82.29 94.4554L83.0352 101.907H77.1844V128.344L106.989 111.124V76.7383L77.1844 59.5179ZM88.9406 114.491H84.6906L79.6402 109.827V107.398L84.884 102.376V94.4278L91.7556 89.9571L99.5933 95.8629L88.9406 114.491Z" fill="url(#paint0_linear_1360_4486)"/>
<path d="M71.3066 101.879L72.0787 94.4002L69.54 87.7218H77.1844V85.9005H62.6961L65.4557 73.951H77.1844V59.4627L47.3797 76.6831V111.096L77.1844 128.317V101.879H71.3066ZM74.7562 109.772L69.7058 114.491H65.4005L54.6933 95.8629L62.5579 90.0124L69.5124 94.4278V102.376L74.7562 107.398V109.772Z" fill="url(#paint1_linear_1360_4486)"/>
<path d="M117.273 37.3051C119.698 46.5223 124.155 55.0799 130.317 62.3508C125.536 63.1462 118.563 61.9974 114.71 59.1605C112.904 57.8643 111.392 56.2017 110.273 54.2814C109.154 52.361 108.452 50.2262 108.214 48.0163L117.273 37.3051Z" fill="#C22640"/>
<path d="M128.399 59.9559C124.092 54.3383 120.744 48.0462 118.492 41.335C119.155 44.2868 118.863 42.8904 118.863 42.8904C120.24 49.8156 122.745 56.4676 126.278 62.5806C126.985 62.6162 127.693 62.6162 128.399 62.5806C129.018 62.5806 129.636 62.4746 130.255 62.3773C129.628 61.5908 129.009 60.7866 128.399 59.9559Z" fill="#E64A60"/>
<path d="M92.8278 36.6069C93.4613 35.725 94.1871 34.9132 94.993 34.1854C98.5281 31.2867 103.592 31.8611 108.073 32.5946C111.254 33.1161 114.886 33.7082 116.742 36.3683C118.598 39.0284 117.971 43.2174 117.175 46.6022L113.994 59.7615L108.736 63.0579C99.8773 59.0143 91.6547 53.7032 84.3261 47.2916L92.8278 36.6069Z" fill="#E64A60"/>
<path d="M79.0058 49.4038C79.2621 51.1095 85.3777 54.4854 86.8094 55.5901C89.6463 57.6139 92.5097 59.5582 95.4085 61.4936C98.1669 63.3168 101.101 64.8592 104.166 66.098C105.598 66.6901 112.43 70.8792 113.34 69.8894C113.666 69.0679 113.905 68.2149 114.056 67.3441C114.356 66.4604 114.736 65.4971 115.107 64.6928C115.841 63.331 116.433 61.8978 116.875 60.4155C117.193 58.5772 116.46 58.648 114.568 58.0028C112.924 57.5446 111.326 56.932 109.796 56.1734C104.493 53.2481 99.35 50.208 94.2861 46.9204C92.9172 45.9337 91.6041 44.8715 90.3533 43.7389C89.5667 43.1202 87.2955 40.7606 86.4029 40.796C85.0508 40.796 83.5218 44.2515 82.753 45.1529C81.9841 46.0544 78.8468 48.6703 79.0058 49.4038Z" fill="#F2F2F2"/>
<path d="M123.547 60.2916C123.75 59.6023 124.086 58.9596 124.537 58.4004C124.958 57.7976 125.5 57.289 126.128 56.9068C126.76 56.5168 127.463 56.2555 128.196 56.1379C128.937 55.9921 129.699 55.9921 130.441 56.1379C131.199 56.3505 131.908 56.711 132.526 57.1985C133.119 57.6757 136.724 61.2902 133.41 65.5323C132.971 66.1807 132.394 66.7238 131.72 67.1227C131.046 67.5215 130.292 67.766 129.513 67.8389C128.732 67.96 127.936 67.921 127.171 67.7241C126.407 67.5183 125.688 67.1738 125.05 66.7078C124.501 66.1513 124.061 65.498 123.751 64.7811C122.752 63.0578 123.344 61.0428 123.547 60.2916Z" fill="#F2F2F2"/>
<path d="M79.0059 49.4038C79.2621 51.1094 85.3777 54.4853 86.8094 55.59C89.6463 57.6139 92.5098 59.5582 95.4085 61.4936C98.1669 63.3168 101.101 64.8592 104.166 66.098C105.598 66.6901 112.43 70.8791 113.34 69.8893C113.666 69.0678 113.905 68.2149 114.056 67.3441C114.356 66.4603 114.736 65.497 115.107 64.6928C115.841 63.331 116.433 61.8978 116.875 60.4154C117.193 58.5772 116.46 58.6479 114.568 58.0028C114.568 58.0028 104.847 63.5439 94.6926 58.4888C84.5382 53.4337 82.753 45.1529 82.753 45.1529C81.9753 46.019 78.8468 48.6703 79.0059 49.4038Z" fill="#CCCCCC"/>
<path d="M132.526 57.1543L132.358 57.0394C133.041 58.0528 133.368 59.2645 133.286 60.4837C133.204 61.703 132.719 62.8603 131.908 63.7737C131.453 64.4132 130.876 64.9568 130.211 65.3733C129.53 65.7506 128.783 65.9936 128.01 66.0891C127.23 66.2057 126.434 66.1666 125.668 65.9742C125.095 65.8134 124.546 65.5788 124.033 65.2761C124.248 65.8158 124.594 66.2928 125.041 66.6636C125.68 67.1296 126.399 67.4742 127.162 67.6799C127.927 67.8769 128.724 67.9159 129.504 67.7948C130.284 67.722 131.037 67.4773 131.711 67.0785C132.385 66.6797 132.962 66.1366 133.401 65.4882C136.724 61.2462 133.119 57.6316 132.526 57.1543Z" fill="#CCCCCC"/>
<defs>
<linearGradient id="paint0_linear_1360_4486" x1="92.0039" y1="128.372" x2="92.0039" y2="59.8491" gradientUnits="userSpaceOnUse">
<stop stop-color="#111C4E"/>
<stop offset="1" stop-color="#111C4E" stop-opacity="0"/>
</linearGradient>
<linearGradient id="paint1_linear_1360_4486" x1="62.1993" y1="59.6283" x2="62.1993" y2="121.776" gradientUnits="userSpaceOnUse">
<stop stop-color="#111C4E"/>
<stop offset="1" stop-color="#111C4E" stop-opacity="0"/>
</linearGradient>
</defs>
</svg>
