<svg width="450" height="160" viewBox="0 0 450 160" fill="none" xmlns="http://www.w3.org/2000/svg">
<path d="M77.1013 59.5179L47.2974 76.7383V111.151L77.1013 128.372L106.906 111.151V76.7383L77.1013 59.5179ZM65.3458 74.0063H88.803L91.5627 85.9555H62.5585L65.3458 74.0063ZM74.756 109.882L69.7056 114.601H65.428L54.6931 95.9732L62.5585 90.1227L69.5122 94.5381V102.486L74.756 107.509V109.882ZM71.3064 101.989L72.1068 94.5105L69.5399 87.8323H84.7181L82.2346 94.5105L82.9522 101.962H71.3064V101.989ZM88.8576 114.546H84.6083L79.5578 109.882V107.509L84.801 102.486V94.5381L91.6725 90.0674L99.5103 95.9732L88.8576 114.546Z" fill="#003688"/>
<path d="M140.933 108.199C139.069 108.217 137.22 107.862 135.495 107.155C133.77 106.448 132.204 105.402 130.89 104.08C129.576 102.758 128.54 101.187 127.842 99.4578C127.145 97.7289 126.801 95.8779 126.83 94.0139C126.801 92.1389 127.146 90.2768 127.845 88.5367C128.544 86.7966 129.583 85.2131 130.901 83.8794C132.22 82.5457 133.791 81.4885 135.523 80.7694C137.254 80.0502 139.113 79.6835 140.988 79.691C143.043 79.6042 145.091 79.9838 146.979 80.801C148.867 81.6183 150.545 82.8523 151.889 84.4103L148.025 88.6047C147.169 87.5459 146.089 86.6901 144.863 86.0984C143.636 85.5067 142.294 85.1939 140.933 85.1828C139.84 85.2356 138.769 85.5044 137.781 85.9738C136.793 86.4431 135.908 87.1037 135.176 87.9172C134.445 88.7306 133.882 89.6807 133.52 90.7129C133.158 91.7452 133.004 92.839 133.067 93.9311C132.992 95.0638 133.15 96.2001 133.532 97.2692C133.914 98.3382 134.512 99.3172 135.288 100.145C136.065 100.974 137.004 101.633 138.046 102.083C139.088 102.534 140.211 102.764 141.346 102.762C142.703 102.723 144.037 102.399 145.259 101.809C146.481 101.219 147.565 100.378 148.439 99.3399L152.22 103.065C150.87 104.742 149.145 106.08 147.185 106.971C145.225 107.863 143.084 108.283 140.933 108.199Z" fill="#003688"/>
<path d="M163.977 108.199H157.712V79.7463H163.977V86.4248C164.637 84.41 165.938 82.6668 167.682 81.461C169.426 80.2551 171.517 79.6528 173.635 79.7463V86.3696H173.276C167.757 86.3696 163.977 89.9297 163.977 97.1876V108.199Z" fill="#003688"/>
<path d="M206.393 79.7186L192.567 115.843H186.247L189.255 108.199L177.416 79.7186H184.094L192.18 100.747L199.935 79.7186H206.393Z" fill="#003688"/>
<path d="M226.29 108.143C224.473 108.166 222.678 107.739 221.065 106.902C219.453 106.064 218.072 104.841 217.045 103.342V115.843H210.781V79.691H217.045V84.824C218.034 83.2631 219.398 81.9754 221.013 81.0786C222.628 80.1818 224.442 79.7047 226.29 79.691C232.775 79.691 239.012 84.8241 239.012 93.9311C239.012 103.038 232.803 108.143 226.29 108.143ZM224.855 85.1275C222.671 85.3397 220.644 86.3577 219.169 87.9825C217.695 89.6074 216.878 91.723 216.878 93.9173C216.878 96.1115 217.695 98.2271 219.169 99.852C220.644 101.477 222.671 102.495 224.855 102.707C226.996 102.438 228.966 101.397 230.394 99.7782C231.822 98.1598 232.61 96.0756 232.61 93.9173C232.61 91.7589 231.822 89.6747 230.394 88.0563C228.966 86.4379 226.996 85.3964 224.855 85.1275Z" fill="#003688"/>
<path d="M252.728 85.652V99.0364C252.654 99.4977 252.689 99.9702 252.831 100.415C252.973 100.86 253.218 101.266 253.545 101.599C253.873 101.932 254.275 102.183 254.718 102.332C255.16 102.482 255.632 102.525 256.094 102.458H258.55V107.978H254.273C249.72 107.978 246.491 105.935 246.491 99.9746V85.5968H243.013V80.0774H246.463V72.5712H252.7V80.0774H258.523V85.5968L252.728 85.652Z" fill="#003688"/>
<path d="M278.337 108.199C276.448 108.243 274.569 107.908 272.811 107.215C271.053 106.522 269.452 105.483 268.102 104.161C266.751 102.839 265.68 101.26 264.949 99.5176C264.219 97.7749 263.845 95.9035 263.849 94.0138C263.772 91.1132 264.563 88.2555 266.12 85.8072C267.677 83.3589 269.93 81.4313 272.59 80.2713C275.25 79.1114 278.195 78.7718 281.049 79.2964C283.903 79.821 286.535 81.1857 288.608 83.2156C290.682 85.2455 292.102 87.8484 292.687 90.6905C293.272 93.5326 292.994 96.4846 291.891 99.1683C290.788 101.852 288.908 104.145 286.494 105.754C284.079 107.363 281.239 108.214 278.337 108.199ZM278.337 85.1826C277.209 85.1808 276.093 85.4096 275.057 85.8547C274.02 86.2998 273.086 86.952 272.31 87.7712C271.535 88.5903 270.935 89.5592 270.548 90.6184C270.161 91.6777 269.994 92.8049 270.058 93.9309C270.002 95.0591 270.174 96.1868 270.563 97.2471C270.953 98.3074 271.551 99.2784 272.324 100.102C273.096 100.926 274.027 101.587 275.06 102.044C276.093 102.5 277.208 102.745 278.337 102.762C279.465 102.764 280.581 102.535 281.618 102.09C282.654 101.645 283.588 100.993 284.363 100.174C285.138 99.3544 285.738 98.3855 286.126 97.3263C286.513 96.267 286.68 95.1398 286.616 94.0138C286.668 92.8866 286.494 91.7602 286.103 90.7016C285.712 89.643 285.113 88.6736 284.341 87.8503C283.569 87.0271 282.64 86.3668 281.609 85.9086C280.578 85.4504 279.465 85.2036 278.337 85.1826Z" fill="#003688"/>
<path d="M352.793 108.199C350.904 108.243 349.025 107.908 347.267 107.215C345.509 106.522 343.908 105.483 342.558 104.161C341.207 102.839 340.136 101.26 339.405 99.5176C338.675 97.7749 338.301 95.9035 338.305 94.0138C338.228 91.1132 339.019 88.2555 340.576 85.8072C342.133 83.3589 344.386 81.4313 347.046 80.2713C349.706 79.1114 352.651 78.7718 355.505 79.2964C358.359 79.821 360.991 81.1857 363.065 83.2156C365.138 85.2455 366.558 87.8484 367.143 90.6905C367.728 93.5326 367.45 96.4846 366.347 99.1683C365.244 101.852 363.364 104.145 360.95 105.754C358.535 107.363 355.695 108.214 352.793 108.199ZM352.793 85.1826C351.665 85.1808 350.549 85.4096 349.513 85.8547C348.476 86.2998 347.542 86.952 346.767 87.7712C345.991 88.5903 345.392 89.5592 345.005 90.6184C344.617 91.6777 344.45 92.8049 344.514 93.9309C344.459 95.0591 344.63 96.1868 345.02 97.2471C345.409 98.3074 346.008 99.2784 346.781 100.102C347.553 100.926 348.483 101.587 349.516 102.044C350.549 102.5 351.664 102.745 352.793 102.762C353.921 102.764 355.037 102.535 356.074 102.09C357.11 101.645 358.045 100.993 358.82 100.174C359.595 99.3544 360.194 98.3855 360.582 97.3263C360.969 96.267 361.136 95.1398 361.072 94.0138C361.124 92.8866 360.95 91.7602 360.559 90.7016C360.168 89.643 359.569 88.6736 358.797 87.8503C358.025 87.0271 357.096 86.3668 356.065 85.9086C355.034 85.4504 353.921 85.2036 352.793 85.1826Z" fill="#003688"/>
<path d="M404.593 79.6908C410.554 79.6908 414.169 83.4717 414.169 90.1501V108.199H407.904V92.0541C407.904 87.7215 405.89 85.4036 402.385 85.4036C398.88 85.4036 396.534 87.7768 396.534 92.1646V108.199H390.27V91.9992C390.27 87.7769 388.2 85.4036 384.751 85.4036C381.301 85.4036 378.9 87.97 378.9 92.2199V108.199H372.635V79.6908H378.928V84.4101C379.794 82.9857 381.008 81.805 382.457 80.9794C383.905 80.1538 385.54 79.7104 387.207 79.6908C388.919 79.5919 390.622 80.0068 392.097 80.882C393.572 81.7572 394.752 83.0529 395.486 84.6032C396.487 83.1026 397.84 81.8701 399.428 81.0138C401.015 80.1574 402.789 79.7032 404.593 79.6908Z" fill="#003688"/>
<path d="M304.417 102.458V105.604C304.419 105.672 304.402 105.74 304.368 105.798C304.334 105.857 304.283 105.904 304.223 105.936L301.463 107.509C301.403 107.536 301.337 107.55 301.271 107.55C301.204 107.55 301.138 107.536 301.077 107.509L298.318 105.936C298.265 105.899 298.221 105.849 298.192 105.791C298.163 105.733 298.15 105.669 298.152 105.604V102.458C298.15 102.394 298.163 102.33 298.192 102.272C298.221 102.214 298.265 102.164 298.318 102.127L301.077 100.554C301.138 100.527 301.204 100.513 301.271 100.513C301.337 100.513 301.403 100.527 301.463 100.554L304.223 102.127C304.283 102.158 304.334 102.206 304.368 102.265C304.402 102.324 304.419 102.391 304.417 102.458Z" fill="#003688"/>
<path d="M323.458 108.171C321.597 108.154 319.758 107.764 318.05 107.024C316.342 106.285 314.8 105.211 313.514 103.866C312.228 102.52 311.224 100.931 310.562 99.1915C309.9 97.4521 309.593 95.5978 309.66 93.7379C309.663 91.8601 310.041 90.0017 310.772 88.2721C311.503 86.5424 312.572 84.976 313.916 83.665C315.261 82.354 316.853 81.325 318.601 80.6378C320.348 79.9506 322.215 79.6192 324.093 79.6633C326.127 79.6485 328.139 80.0836 329.986 80.9376C331.832 81.7916 333.467 83.0434 334.773 84.6032L330.827 88.7151C329.994 87.6337 328.93 86.7527 327.712 86.1366C326.494 85.5206 325.154 85.185 323.789 85.155C322.697 85.187 321.622 85.4352 320.626 85.8847C319.63 86.3341 318.733 86.9763 317.986 87.7742C317.24 88.572 316.659 89.5096 316.276 90.5332C315.894 91.5567 315.718 92.646 315.759 93.7379C315.661 94.861 315.792 95.9923 316.147 97.0625C316.502 98.1327 317.071 99.1193 317.821 99.9616C318.57 100.804 319.483 101.484 320.505 101.961C321.526 102.438 322.635 102.701 323.762 102.734C325.118 102.726 326.457 102.429 327.69 101.862C328.922 101.296 330.02 100.474 330.91 99.4503L334.607 103.259C333.249 104.876 331.537 106.16 329.605 107.012C327.672 107.863 325.568 108.26 323.458 108.171Z" fill="#003688"/>
<path d="M82.2347 94.4554L84.746 87.777H69.5402L72.1067 94.4554L71.334 101.962H77.1293L82.9522 101.907L82.2347 94.4554Z" fill="white"/>
<path d="M91.7003 90.0123L84.8287 94.4829V102.431L79.5577 107.481V109.854L84.6355 114.491H88.8579L99.5378 95.918L91.7003 90.0123Z" fill="white"/>
<path d="M88.8026 74.0061H65.3454L62.6133 85.9555H91.6451L88.8026 74.0061Z" fill="white"/>
<path d="M69.5125 94.4829L62.5581 90.0674L54.693 95.918L65.4281 114.546H69.7056L74.7834 109.854V107.481L69.5125 102.431V94.4829Z" fill="white"/>
<path d="M77.1013 59.5179V74.0063H88.803L91.5627 85.9555H77.0468V87.777H84.6635L82.1794 94.4552L82.8969 101.907H77.0468V128.344L106.851 111.124V76.7107L77.1013 59.5179ZM88.8576 114.491H84.6082L79.5578 109.827V107.454L84.8009 102.431V94.4828L91.6725 90.0122L99.5102 95.9179L88.8576 114.491Z" fill="url(#paint0_linear_1358_4005)"/>
<path d="M71.3064 101.934L72.1068 94.4552L69.5398 87.777H77.1013V85.9555H62.613L65.3727 74.0063H77.1289V59.5179L47.325 76.7383V111.151L77.1289 128.372V101.934H71.3064ZM74.756 109.827L69.7056 114.546H65.4279L54.6931 95.9179L62.5584 90.0674L69.5122 94.4828V102.431L74.756 107.454V109.827Z" fill="url(#paint1_linear_1358_4005)"/>
<path d="M117.273 37.3051C119.698 46.5223 124.155 55.0799 130.317 62.3508C125.536 63.1462 118.563 61.9974 114.71 59.1605C112.904 57.8643 111.392 56.2017 110.273 54.2814C109.154 52.361 108.452 50.2262 108.214 48.0163L117.273 37.3051Z" fill="#C22640"/>
<path d="M128.399 59.9559C124.092 54.3383 120.744 48.0462 118.492 41.335C119.155 44.2868 118.863 42.8904 118.863 42.8904C120.24 49.8156 122.745 56.4676 126.278 62.5806C126.985 62.6162 127.693 62.6162 128.399 62.5806C129.018 62.5806 129.636 62.4746 130.255 62.3773C129.628 61.5908 129.009 60.7866 128.399 59.9559Z" fill="#E64A60"/>
<path d="M92.8278 36.6069C93.4613 35.725 94.1871 34.9132 94.993 34.1854C98.528 31.2867 103.592 31.8611 108.073 32.5946C111.254 33.1161 114.886 33.7082 116.742 36.3683C118.598 39.0284 117.971 43.2174 117.175 46.6022L113.994 59.7615L108.735 63.0579C99.8773 59.0143 91.6547 53.7032 84.326 47.2916L92.8278 36.6069Z" fill="#E64A60"/>
<path d="M79.0058 49.4038C79.2621 51.1095 85.3777 54.4854 86.8094 55.5901C89.6463 57.6139 92.5097 59.5582 95.4085 61.4936C98.1669 63.3168 101.101 64.8592 104.166 66.098C105.598 66.6901 112.43 70.8792 113.34 69.8894C113.666 69.0679 113.905 68.2149 114.056 67.3441C114.356 66.4604 114.736 65.4971 115.107 64.6928C115.841 63.331 116.433 61.8978 116.875 60.4155C117.193 58.5772 116.46 58.648 114.568 58.0028C112.924 57.5446 111.326 56.932 109.796 56.1734C104.493 53.2481 99.35 50.208 94.2861 46.9204C92.9172 45.9337 91.6041 44.8715 90.3533 43.7389C89.5667 43.1202 87.2955 40.7606 86.4029 40.796C85.0508 40.796 83.5218 44.2515 82.753 45.1529C81.9841 46.0544 78.8468 48.6703 79.0058 49.4038Z" fill="#F2F2F2"/>
<path d="M123.547 60.2916C123.75 59.6023 124.086 58.9596 124.537 58.4004C124.958 57.7976 125.5 57.289 126.128 56.9068C126.76 56.5168 127.463 56.2555 128.196 56.1379C128.937 55.9921 129.7 55.9921 130.441 56.1379C131.199 56.3505 131.908 56.711 132.526 57.1985C133.119 57.6757 136.724 61.2902 133.41 65.5323C132.971 66.1807 132.394 66.7238 131.72 67.1227C131.046 67.5215 130.292 67.766 129.513 67.8389C128.732 67.96 127.936 67.921 127.171 67.7241C126.407 67.5183 125.688 67.1738 125.05 66.7078C124.501 66.1513 124.061 65.498 123.751 64.7811C122.752 63.0578 123.344 61.0428 123.547 60.2916Z" fill="#F2F2F2"/>
<path d="M79.0059 49.4038C79.2621 51.1094 85.3777 54.4853 86.8094 55.59C89.6463 57.6139 92.5098 59.5582 95.4085 61.4936C98.1669 63.3168 101.101 64.8592 104.166 66.098C105.598 66.6901 112.43 70.8791 113.34 69.8893C113.666 69.0678 113.905 68.2149 114.056 67.3441C114.356 66.4603 114.736 65.497 115.107 64.6928C115.841 63.331 116.433 61.8978 116.875 60.4154C117.193 58.5772 116.46 58.6479 114.568 58.0028C114.568 58.0028 104.847 63.5439 94.6926 58.4888C84.5382 53.4337 82.753 45.1529 82.753 45.1529C81.9753 46.019 78.8468 48.6703 79.0059 49.4038Z" fill="#CCCCCC"/>
<path d="M132.526 57.1543L132.358 57.0394C133.041 58.0528 133.368 59.2645 133.286 60.4837C133.204 61.703 132.719 62.8603 131.908 63.7737C131.453 64.4132 130.876 64.9568 130.211 65.3733C129.53 65.7506 128.783 65.9936 128.01 66.0891C127.23 66.2057 126.434 66.1666 125.668 65.9742C125.095 65.8134 124.546 65.5788 124.033 65.2761C124.248 65.8158 124.594 66.2928 125.041 66.6636C125.679 67.1296 126.398 67.4742 127.162 67.6799C127.927 67.8769 128.723 67.9159 129.504 67.7948C130.283 67.722 131.037 67.4773 131.711 67.0785C132.385 66.6797 132.962 66.1366 133.401 65.4882C136.724 61.2462 133.118 57.6316 132.526 57.1543Z" fill="#CCCCCC"/>
<defs>
<linearGradient id="paint0_linear_1358_4005" x1="92.0039" y1="128.372" x2="92.0039" y2="59.8491" gradientUnits="userSpaceOnUse">
<stop stop-color="#111C4E"/>
<stop offset="1" stop-color="#111C4E" stop-opacity="0"/>
</linearGradient>
<linearGradient id="paint1_linear_1358_4005" x1="62.1993" y1="59.6007" x2="62.1993" y2="121.749" gradientUnits="userSpaceOnUse">
<stop stop-color="#111C4E"/>
<stop offset="1" stop-color="#111C4E" stop-opacity="0"/>
</linearGradient>
</defs>
</svg>
