<svg xmlns="http://www.w3.org/2000/svg" width="240" height="32" viewBox="0 0 240 32">
    <defs>
        <linearGradient id="l9li3c4x4a" x1="50.333%" x2="50.333%" y1="89.297%" y2="10.559%">
            <stop offset="0%" stop-color="#002D74"/>
            <stop offset="100%" stop-color="#002D74" stop-opacity="0"/>
        </linearGradient>
        <linearGradient id="6o09d3ni6b" x1="50.083%" x2="50.083%" y1="89.189%" y2="10.45%">
            <stop offset="0%" stop-color="#002D74" stop-opacity="0"/>
            <stop offset="100%" stop-color="#002D74"/>
        </linearGradient>
    </defs>
    <g fill="none" fill-rule="evenodd">
        <g>
            <g>
                <path fill="#002D74" fill-rule="nonzero" d="M40.032 22.261c-1.574.02-3.09-.597-4.201-1.712-1.111-1.116-1.724-2.633-1.698-4.208-.023-1.583.592-3.108 1.705-4.234 1.113-1.125 2.632-1.756 4.215-1.75 1.741-.076 3.42.652 4.555 1.974l-1.621 1.749c-.722-.895-1.806-1.419-2.955-1.43-.924.036-1.794.444-2.413 1.13-.619.688-.934 1.596-.872 2.519-.062.949.269 1.882.913 2.582.645.699 1.549 1.103 2.5 1.119 1.144-.033 2.219-.553 2.955-1.43l1.578 1.558c-1.136 1.399-2.86 2.188-4.661 2.133zM49.653 22.261H47.04V10.38h2.613v2.794c.565-1.735 2.22-2.88 4.043-2.794v2.773h-.15c-2.293 0-3.893 1.483-3.893 4.512v4.597zM67.381 10.357L61.6 25.461 58.955 25.461 60.213 22.272 55.264 10.357 58.048 10.357 61.429 19.157 64.672 10.357zM75.733 22.24c-1.549.035-3.013-.705-3.904-1.973v5.226h-2.613V10.357h2.613v2.134c.836-1.327 2.294-2.133 3.862-2.134 2.698 0 5.333 2.134 5.333 5.942 0 3.808-2.613 5.941-5.29 5.941zm-.597-9.6c-.935.024-1.82.43-2.45 1.123-.628.693-.945 1.613-.878 2.546-.067.935.25 1.856.878 2.55.629.696 1.514 1.104 2.45 1.13.922-.036 1.789-.452 2.395-1.149.605-.696.897-1.612.805-2.53.086-.925-.214-1.844-.827-2.54-.614-.697-1.488-1.11-2.416-1.14l.043.01zM86.741 12.8v5.6c-.061.388.065.782.34 1.062.277.28.669.412 1.058.357h1.066v2.336h-1.824c-1.909 0-3.2-.854-3.2-3.35V12.8h-1.504v-2.197h1.451V7.467h2.613v3.136h2.422V12.8H86.74zM97.44 22.261c-1.595.04-3.138-.566-4.28-1.68-1.14-1.115-1.782-2.644-1.779-4.24-.07-2.48 1.373-4.755 3.647-5.75 2.273-.995 4.923-.511 6.698 1.223 1.775 1.735 2.32 4.373 1.378 6.669-.942 2.296-3.182 3.79-5.664 3.778zm0-9.6c-.951-.004-1.861.385-2.514 1.077-.653.691-.99 1.622-.931 2.571-.047.959.299 1.894.957 2.593.658.698 1.571 1.098 2.53 1.109.955.008 1.87-.382 2.526-1.076.656-.694.993-1.63.93-2.583.047-.96-.3-1.898-.96-2.596-.66-.699-1.577-1.098-2.538-1.105v.01zM128.544 22.261c-1.594.04-3.136-.566-4.276-1.681-1.139-1.115-1.778-2.644-1.772-4.239-.065-2.475 1.378-4.743 3.648-5.733 2.27-.99 4.913-.504 6.683 1.228 1.77 1.733 2.312 4.365 1.37 6.656-.94 2.29-3.177 3.782-5.653 3.77zm0-9.6c-.95-.005-1.86.385-2.51 1.077-.652.692-.987 1.623-.925 2.571-.05.958.294 1.893.95 2.592.656.699 1.57 1.1 2.528 1.11.954.008 1.87-.382 2.525-1.076.656-.694.993-1.63.93-2.583.047-.96-.3-1.898-.96-2.596-.66-.699-1.577-1.098-2.538-1.105v.01zM150.187 10.357c2.485 0 4 1.579 4 4.374v7.53h-2.614V15.52c0-1.813-.842-2.784-2.314-2.784s-2.432.992-2.432 2.837v6.688h-2.624V15.5c0-1.771-.864-2.763-2.304-2.763s-2.443 1.067-2.443 2.859v6.666h-2.613V10.357h2.613v1.974c.738-1.218 2.054-1.965 3.477-1.974 1.432-.067 2.767.726 3.392 2.016.872-1.272 2.32-2.027 3.862-2.016zM108.33 19.872v1.312c.006.054-.024.106-.074.128l-1.141.661c-.045.032-.105.032-.15 0l-1.141-.64c-.046-.026-.074-.075-.075-.128v-1.333c.003-.055.03-.106.075-.139l1.141-.661c.048-.021.102-.021.15 0l1.141.661c.047.03.076.083.075.139zM116.267 22.25c-1.573-.01-3.075-.656-4.164-1.791-1.089-1.136-1.672-2.663-1.618-4.235.006-1.585.649-3.101 1.784-4.207 1.136-1.106 2.67-1.708 4.254-1.67 1.742-.036 3.405.721 4.522 2.058l-1.578 1.718c-.708-.907-1.784-1.45-2.934-1.483-.924.02-1.802.41-2.434 1.085-.632.674-.966 1.575-.926 2.499-.076.948.239 1.887.871 2.598.632.71 1.528 1.133 2.479 1.167 1.146-.013 2.232-.513 2.986-1.376l1.547 1.59c-1.183 1.4-2.959 2.16-4.79 2.048z" transform="translate(-520 -88) translate(520 88)"/>
                <g fill-rule="nonzero">
                    <path fill="#FFF" d="M12.8 0L0 7.467v14.762l12.8 7.403 12.8-7.403V7.413L12.8 0zm0 0L0 7.467v14.762l12.8 7.403 12.8-7.403V7.413L12.8 0z" transform="translate(-520 -88) translate(520 88) translate(0 .597)"/>
                    <path fill="#002D74" d="M12.8 0L0 7.467v14.762l12.8 7.403 12.8-7.403V7.413L12.8 0zM7.733 6.4h10.091l1.216 5.141H6.592L7.733 6.4zm4.086 15.403L9.6 23.86H7.797L3.2 15.83l3.381-2.506L9.6 15.22v3.382l2.261 2.133-.042 1.067zm-1.483-3.371l.341-3.2-1.066-2.88h6.496l-1.067 2.88.32 3.2h-5.024zm7.541 5.397h-1.813l-2.197-2.026v-1.014l2.25-2.133v-3.435l2.987-1.952 3.37 2.539-4.597 8.021z" transform="translate(-520 -88) translate(520 88) translate(0 .597)"/>
                    <path fill="url(#l9li3c4x4a)" d="M12.8 0v6.4h5.024l1.216 5.141H12.8v.779h3.307L15.04 15.2l.32 3.2H12.8v11.2l12.8-7.403V7.413L12.8 0zm5.077 23.83h-1.813l-2.197-2.027v-1.014l2.25-2.133v-3.435l2.987-1.952 3.37 2.539-4.597 8.021z" style="mix-blend-mode:multiply" transform="translate(-520 -88) translate(520 88) translate(0 .597)"/>
                    <path fill="url(#6o09d3ni6b)" d="M10.336 18.432l.341-3.2-1.066-2.88H12.8v-.779H6.592l1.173-5.141H12.8v-6.4L0 7.499v14.73l12.8 7.403v-11.2h-2.464zm1.483 3.37L9.6 23.863H7.797L3.2 15.828l3.381-2.506L9.6 15.22v3.382l2.261 2.133-.042 1.067z" style="mix-blend-mode:multiply" transform="translate(-520 -88) translate(520 88) translate(0 .597)"/>
                </g>
                <path fill="#B6B8BA" d="M181.163 22.4c-1.638.03-3.216-.609-4.373-1.768s-1.793-2.739-1.76-4.376c-.03-1.659.62-3.258 1.798-4.426 1.178-1.169 2.783-1.805 4.441-1.76 1.763-.088 3.48.584 4.715 1.845l-1.675 1.93c-.803-.835-1.902-1.322-3.061-1.354-.958.019-1.868.425-2.522 1.127-.653.701-.994 1.638-.945 2.595-.055.962.283 1.905.937 2.613.653.708 1.567 1.12 2.53 1.142 1.216.005 2.377-.502 3.2-1.397l1.621 1.696c-1.22 1.427-3.03 2.214-4.906 2.133M197.365 22.165L197.365 17.365 192.512 17.365 192.512 22.165 189.888 22.165 189.888 10.208 192.512 10.208 192.512 14.944 197.365 14.944 197.365 10.208 200 10.208 200 22.165zM209.365 13.28l-1.589 3.883h3.2l-1.61-3.883zm1.248-3.2l5.131 12.043h-2.752l-1.067-2.678h-5.056l-1.066 2.678h-2.688l5.13-12.043h2.368z" transform="translate(-520 -88) translate(520 88)"/>
                <path fill="#B6B8BA" fill-rule="nonzero" d="M219.189 10.208H221.82399999999998V22.165H219.189zM235.381 22.165L229.579 14.56 229.579 22.165 226.987 22.165 226.987 10.208 229.408 10.208 235.019 17.568 235.019 10.208 237.611 10.208 237.611 22.165z" transform="translate(-520 -88) translate(520 88)"/>
                <path fill="#B6B8BA" d="M181.163 22.4c-1.638.03-3.216-.609-4.373-1.768s-1.793-2.739-1.76-4.376c-.03-1.659.62-3.258 1.798-4.426 1.178-1.169 2.783-1.805 4.441-1.76 1.763-.088 3.48.584 4.715 1.845l-1.675 1.93c-.803-.835-1.902-1.322-3.061-1.354-.958.019-1.868.425-2.522 1.127-.653.701-.994 1.638-.945 2.595-.055.962.283 1.905.937 2.613.653.708 1.567 1.12 2.53 1.142 1.216.005 2.377-.502 3.2-1.397l1.621 1.696c-1.22 1.427-3.03 2.214-4.906 2.133M197.365 22.165L197.365 17.365 192.512 17.365 192.512 22.165 189.888 22.165 189.888 10.208 192.512 10.208 192.512 14.944 197.365 14.944 197.365 10.208 200 10.208 200 22.165zM209.365 13.28l-1.589 3.883h3.2l-1.61-3.883zm1.248-3.2l5.131 12.043h-2.752l-1.067-2.678h-5.056l-1.066 2.678h-2.688l5.13-12.043h2.368z" transform="translate(-520 -88) translate(520 88)"/>
                <path stroke="#B6B8BA" stroke-width=".55" d="M164.395 0L164.395 31.115" transform="translate(-520 -88) translate(520 88)"/>
            </g>
        </g>
    </g>
</svg>
